<svg width="160" height="43" viewBox="0 0 160 43" fill="none" xmlns="http://www.w3.org/2000/svg">
<path d="M146.557 0.75L159.25 7.93652V16.75H152.262V28.75H158.916L159.229 36.0703L146.58 42.2188L13.7334 42.249L0.75 36.0576V28.75H6.9043V16.75H1.12109L0.767578 7.93262L13.7578 0.75H146.557Z" fill="url(#paint0_radial_156_226)" stroke="#FFF300" stroke-width="1.5"/>
<path d="M20.4113 29L18.2713 15H19.9713L21.3913 25.8L23.3713 15H25.0913L27.0713 25.8L28.4913 15H30.1913L28.0513 29H26.1313L24.2313 18.24L22.3313 29H20.4113ZM34.9034 17.32C34.5034 17.32 34.1701 17.1867 33.9034 16.92C33.6368 16.6533 33.5034 16.3333 33.5034 15.96C33.5034 15.5733 33.6368 15.2533 33.9034 15C34.1701 14.7333 34.5034 14.6 34.9034 14.6C35.2901 14.6 35.6168 14.7333 35.8834 15C36.1634 15.2533 36.3034 15.5733 36.3034 15.96C36.3034 16.3333 36.1634 16.6533 35.8834 16.92C35.6168 17.1867 35.2901 17.32 34.9034 17.32ZM31.0234 29V27.56H34.1834V21.02C34.1834 20.6867 34.0168 20.52 33.6834 20.52H31.3634V19.08H34.0834C35.2701 19.08 35.8634 19.6733 35.8634 20.86V27.56H39.0234V29H31.0234ZM45.9156 29.24C44.649 29.24 43.6223 28.9467 42.8356 28.36C42.0623 27.76 41.629 26.94 41.5356 25.9H43.2756C43.3556 26.4467 43.6223 26.8933 44.0756 27.24C44.5423 27.5867 45.169 27.76 45.9556 27.76C46.7023 27.76 47.2556 27.6 47.6156 27.28C47.989 26.96 48.1756 26.5933 48.1756 26.18C48.1756 25.62 47.9556 25.24 47.5156 25.04C47.0756 24.8267 46.4156 24.6667 45.5356 24.56C44.4823 24.44 43.609 24.1533 42.9156 23.7C42.2223 23.2467 41.8756 22.5667 41.8756 21.66C41.8756 20.8467 42.2156 20.1733 42.8956 19.64C43.5756 19.1067 44.5023 18.84 45.6756 18.84C46.8356 18.84 47.749 19.1067 48.4156 19.64C49.0823 20.16 49.4623 20.9067 49.5556 21.88H47.8956C47.8556 21.4 47.6223 21.02 47.1956 20.74C46.7823 20.4467 46.2623 20.3 45.6356 20.3C44.9823 20.3 44.4756 20.4267 44.1156 20.68C43.7556 20.92 43.5756 21.24 43.5756 21.64C43.5756 22.04 43.7756 22.3733 44.1756 22.64C44.589 22.8933 45.2356 23.06 46.1156 23.14C46.809 23.22 47.4423 23.3533 48.0156 23.54C48.589 23.7267 49.0423 24.02 49.3756 24.42C49.7223 24.82 49.8956 25.38 49.8956 26.1C49.909 26.7 49.7423 27.24 49.3956 27.72C49.0623 28.1867 48.5956 28.56 47.9956 28.84C47.3956 29.1067 46.7023 29.24 45.9156 29.24ZM52.2678 29V14.6H53.9478V20.58C54.2145 20.0733 54.6545 19.66 55.2678 19.34C55.8811 19.0067 56.5545 18.84 57.2878 18.84C58.5011 18.84 59.4211 19.2067 60.0478 19.94C60.6878 20.6733 61.0078 21.7 61.0078 23.02V29H59.3278V23.24C59.3278 22.3467 59.1078 21.6533 58.6678 21.16C58.2411 20.6667 57.6411 20.42 56.8678 20.42C56.3345 20.42 55.8478 20.54 55.4078 20.78C54.9678 21.02 54.6145 21.3733 54.3478 21.84C54.0811 22.3067 53.9478 22.88 53.9478 23.56V29H52.2678ZM62.9 29V27.56H66.28V16.54C66.28 16.2067 66.1133 16.04 65.78 16.04H63.26V14.6H66.18C66.7533 14.6 67.1933 14.7533 67.5 15.06C67.8067 15.3667 67.96 15.8067 67.96 16.38V27.56H71.34V29H62.9ZM78.0722 17.32C77.6722 17.32 77.3389 17.1867 77.0722 16.92C76.8055 16.6533 76.6722 16.3333 76.6722 15.96C76.6722 15.5733 76.8055 15.2533 77.0722 15C77.3389 14.7333 77.6722 14.6 78.0722 14.6C78.4589 14.6 78.7855 14.7333 79.0522 15C79.3322 15.2533 79.4722 15.5733 79.4722 15.96C79.4722 16.3333 79.3322 16.6533 79.0522 16.92C78.7855 17.1867 78.4589 17.32 78.0722 17.32ZM74.1922 29V27.56H77.3522V21.02C77.3522 20.6867 77.1855 20.52 76.8522 20.52H74.5322V19.08H77.2522C78.4389 19.08 79.0322 19.6733 79.0322 20.86V27.56H82.1922V29H74.1922ZM89.0844 29.24C87.8177 29.24 86.791 28.9467 86.0044 28.36C85.231 27.76 84.7977 26.94 84.7044 25.9H86.4444C86.5244 26.4467 86.791 26.8933 87.2444 27.24C87.711 27.5867 88.3377 27.76 89.1244 27.76C89.871 27.76 90.4244 27.6 90.7844 27.28C91.1577 26.96 91.3444 26.5933 91.3444 26.18C91.3444 25.62 91.1244 25.24 90.6844 25.04C90.2444 24.8267 89.5844 24.6667 88.7044 24.56C87.651 24.44 86.7777 24.1533 86.0844 23.7C85.391 23.2467 85.0444 22.5667 85.0444 21.66C85.0444 20.8467 85.3844 20.1733 86.0644 19.64C86.7444 19.1067 87.671 18.84 88.8444 18.84C90.0044 18.84 90.9177 19.1067 91.5844 19.64C92.251 20.16 92.631 20.9067 92.7244 21.88H91.0644C91.0244 21.4 90.791 21.02 90.3644 20.74C89.951 20.4467 89.431 20.3 88.8044 20.3C88.151 20.3 87.6444 20.4267 87.2844 20.68C86.9244 20.92 86.7444 21.24 86.7444 21.64C86.7444 22.04 86.9444 22.3733 87.3444 22.64C87.7577 22.8933 88.4044 23.06 89.2844 23.14C89.9777 23.22 90.611 23.3533 91.1844 23.54C91.7577 23.7267 92.211 24.02 92.5444 24.42C92.891 24.82 93.0644 25.38 93.0644 26.1C93.0777 26.7 92.911 27.24 92.5644 27.72C92.231 28.1867 91.7644 28.56 91.1644 28.84C90.5644 29.1067 89.871 29.24 89.0844 29.24ZM100.817 29C99.9099 29 99.1966 28.78 98.6766 28.34C98.1566 27.9 97.8966 27.1067 97.8966 25.96V20.52H95.3766V19.08H96.8766C97.5566 19.08 97.9499 18.7467 98.0566 18.08L98.3366 16.54H99.5766V19.08H103.537V20.52H99.5766V25.96C99.5766 26.52 99.7032 26.9133 99.9566 27.14C100.223 27.3667 100.677 27.48 101.317 27.48H103.537V29H100.817Z" fill="white"/>
<path d="M118 11.9999C122.665 9.66751 126.5 12.4999 128 14.4999C129.5 12.4999 133.335 9.66751 138 11.9999C144 14.9999 142.5 22.4999 138 26.9999C135.804 29.1957 131.937 33.0627 129.109 35.2136C128.455 35.7105 127.561 35.6883 126.923 35.1727C124.33 33.0799 120.165 29.1649 118 26.9999C113.5 22.4999 112 14.9999 118 11.9999Z" fill="#F8312F"/>
<path d="M128 14.4999V17.5491C129.27 14.8649 132.425 11.2804 137.658 11.8373C133.148 9.80611 129.463 12.549 128 14.4999ZM123.946 11.5368C122.261 10.9499 120.225 10.8873 118 11.9999C112 14.9999 113.5 22.4999 118 26.9999C120.165 29.1649 124.33 33.0799 126.923 35.1727C127.561 35.6883 128.455 35.7105 129.109 35.2136C129.363 35.0203 129.626 34.8131 129.895 34.5945C127.04 32.4523 123.034 29.0761 120.859 27.1324C115.902 22.7019 114.25 15.3178 120.859 12.3641C121.933 11.8842 122.967 11.6264 123.946 11.5368Z" fill="#CA0B4A"/>
<path d="M133.086 22.7346C134.443 23.5177 136.613 22.2988 137.933 20.0121C139.253 17.7254 139.224 15.2368 137.867 14.4536C136.511 13.6705 134.341 14.8894 133.021 17.1761C131.701 19.4628 131.73 21.9514 133.086 22.7346Z" fill="#F37366"/>
<defs>
<radialGradient id="paint0_radial_156_226" cx="0" cy="0" r="1" gradientUnits="userSpaceOnUse" gradientTransform="translate(80 21.5) rotate(180) scale(80 239.134)">
<stop offset="0.153846" stop-color="#A3002B" stop-opacity="0.86"/>
<stop offset="0.807692" stop-color="#3C0010"/>
</radialGradient>
</defs>
</svg>
