<?xml version="1.0" encoding="UTF-8" standalone="no"?><!DOCTYPE svg PUBLIC "-//W3C//DTD SVG 1.1//EN" "http://www.w3.org/Graphics/SVG/1.1/DTD/svg11.dtd"><svg width="100%" height="100%" viewBox="0 0 4267 4267" version="1.1" xmlns="http://www.w3.org/2000/svg" xmlns:xlink="http://www.w3.org/1999/xlink" xml:space="preserve" xmlns:serif="http://www.serif.com/" style="fill-rule:evenodd;clip-rule:evenodd;stroke-linejoin:round;stroke-miterlimit:2;"><path d="M1871.892,903.271c39.367,-68.667 72.192,-120.217 135.592,-170.967c44.9,-35.938 85.754,-56.892 141.842,-23.325c47.067,29.342 93.925,74.171 122.008,122.742c69.65,-4.337 122.196,-8.65 173.454,46.212c73.767,13.638 132.929,35.546 195.658,77.412c117.617,78.504 82.567,183.521 23.017,288.579c117.508,32.625 234.725,66.283 351.642,100.979l113.642,33.654c32.733,9.375 89.05,22.013 115.321,40.463c4.933,37.175 14.287,94.987 17.017,130.867c60.621,-63.858 178.621,-168.042 260.167,-200.079c65.708,121.608 87.896,291.308 77.333,428.388c-5.537,71.892 -10.917,98.029 -46.037,162.362c-58.804,107.367 -147.5,195.367 -255.329,253.317c105.038,-20.892 198.833,-36.758 307.271,-36.129c-58.304,173.612 -179.338,371.146 -332.392,476.275c12.567,81.625 18.3,167.171 31.363,247.929c-116.7,88.246 -229.117,180.842 -347.592,266.654c-176.146,127.171 -362.096,240.179 -556.104,337.958c-84.887,43.35 -179.475,89.529 -268.808,123.246c-163.938,-59.867 -345.95,-158.467 -496.875,-248.925c-44.1,-26.792 -87.958,-53.983 -131.575,-81.562c-8.2,-5.158 -49.271,-31.842 -54.867,-34.196c-12.45,-10.229 -46.371,-31.55 -60.987,-41.371c-37,-24.883 -73.708,-50.204 -110.121,-75.946c-99.65,-70.713 -228.763,-171.904 -321.067,-251.933c13.387,-76.779 27.712,-167.254 36.783,-244.608c-161.629,-112.312 -267.812,-301.625 -343.204,-478.979c23.5,4.442 79.108,7.946 106.133,11.204c73.258,8.112 146.042,20.033 218.058,35.712c-115.817,-65.896 -226.317,-170.062 -279.846,-294.071c-68.879,-159.558 -21.792,-404.858 41.325,-562.433c107.129,64.021 181.008,126.071 265.517,217.467c6.504,-37.542 9.083,-102.65 21.487,-134.825c9.362,-24.271 134.717,-53.883 162.733,-62.117l242.671,-71.25c43.238,-12.454 91.6,-24.35 133.696,-38.221c6.35,-1.692 12.85,-3.308 19.096,-5.292c-18.512,-62.679 -40.321,-144.775 -40.937,-211.1c36.546,-77.921 164.212,-88.788 238.279,-84.492c22.4,-49.779 38.696,-64.433 94.638,-49.6Z" style="fill:#1f1f1f;fill-rule:nonzero;"/><path d="M2709.708,2092.108l-1.729,-1.833c-24.792,-26.817 -22.621,-62.917 5.9,-86.008c13.504,-11.058 31.058,-15.888 48.321,-13.288c33.713,5.042 51.717,36.975 46.892,69.683c-3.992,27.075 -25.729,34.354 -40.613,53.342c-9.408,12.292 -19.746,39.763 -25.425,54.621c-58.887,154.117 -43.179,341.417 -10.879,500.433c-75.971,28.792 -159.554,47.817 -238.458,64.733c-188.421,40.392 -379.533,51.596 -571.012,28.279c-29.913,-3.642 -79.037,-8.412 -107.421,-15.371c-82.517,-7.692 -216.817,-43.296 -294.238,-71.771c7.296,-42.808 17.788,-80.746 23.779,-125.517c19.742,-148.392 0.088,-299.367 -56.987,-437.758l-3.042,-1.417c-37.842,-17.688 -63.15,-40.975 -42.771,-87.692c14.913,-30.446 62.25,-39.683 88.533,-20.288c35.379,26.113 32.575,58.754 9.196,90.779c73.812,105.187 204.337,239.658 345.1,185.571c95.35,-47.738 165.275,-141.971 207.837,-237.608l5.117,-1.3c12.996,38.433 53.4,1.587 67.013,30.883l1.296,-3.646c10.333,17.55 22.221,43.142 33.579,58.079c84.512,111.125 193.892,225.15 337.967,131.796c64.938,-42.075 129.658,-99.375 172.046,-164.704Z" style="fill:url(#_Linear1);fill-rule:nonzero;"/><path d="M1487.838,2111.654l-3.042,-1.417c-37.842,-17.688 -63.15,-40.975 -42.771,-87.692c14.913,-30.446 62.25,-39.683 88.533,-20.288c35.379,26.113 32.575,58.754 9.196,90.779c73.812,105.187 204.337,239.658 345.1,185.571c13.817,14.029 9.346,25.192 -4.992,37.458c-37.975,32.488 -61.525,9.1 -73.104,68.65c4.1,10.454 24.392,58.788 24.013,65.025c-3.367,55.367 -16.063,120.167 -44.7,167.779c-8.225,13.667 4.675,87.65 7.617,111.342c6.954,9.067 10.983,11.167 21.987,13.287l2.729,3.033l-3.121,1.517c-82.517,-7.692 -216.817,-43.296 -294.238,-71.771c7.296,-42.808 17.788,-80.746 23.779,-125.517c19.742,-148.392 0.088,-299.367 -56.987,-437.758Z" style="fill:#ffed26;fill-rule:nonzero;"/><path d="M1696.629,2426.225c22.633,-5.296 46.363,2.029 62.075,19.158c15.712,17.129 20.967,41.4 13.742,63.492c-7.221,22.096 -25.8,38.575 -48.596,43.117c-34.446,6.858 -68.029,-15.167 -75.458,-49.496c-7.433,-34.329 14.038,-68.275 48.237,-76.271Z" style="fill:#003cab;fill-rule:nonzero;"/><path d="M2111.442,2233.233c33.071,-2.154 37.071,33.075 41.996,58.25c24.596,-3.383 33.825,-3.263 58.512,-0.604c-16.058,19.083 -42.738,36.142 -31.967,65.429c21.883,59.517 96.438,16.912 117.992,74.708c6.521,20.662 6.442,38.117 -2.425,57.6c-22.583,49.625 -90.5,17.858 -112.371,61.067c-17.421,34.425 15.733,51.004 23.371,71.433l-1.963,3.758c-11.542,3.208 -34.883,-1.075 -46.525,-4.092c-9.358,35.779 -14.683,50.867 -37.908,80.021c-20.938,-14.312 -35.029,-58.808 -39.917,-82.888c-13.492,3.571 -40.583,12.779 -52.183,4.433c1.179,-13.804 31.242,-30.225 23.546,-58.617c-18.117,-66.821 -101.75,-16.067 -121.525,-82.05c-5.938,-19.812 -4.671,-45.483 8.067,-62.513c21.246,-28.408 52.779,-24.496 83.504,-28.092c15.125,-10.008 29.95,-26.567 30.808,-45.608c1.046,-23.167 -16.108,-38.65 -30.479,-54.458c25.917,-4.025 32.246,-2.258 58.042,2.821c6.583,-24.821 9.896,-45.7 31.425,-60.6Z" style="fill:#003cab;fill-rule:nonzero;"/><path d="M2101.046,2411.533c23.625,-8.092 49.367,4.3 57.779,27.812c8.408,23.513 -3.629,49.417 -27.029,58.15c-15.417,5.75 -32.742,2.758 -45.338,-7.833c-12.596,-10.592 -18.517,-27.142 -15.496,-43.321c3.021,-16.179 14.513,-29.479 30.083,-34.808Z" style="fill:#ffed26;fill-rule:nonzero;"/><path d="M2538.517,2424.367c35.783,-6.562 70.075,17.221 76.475,53.029c6.404,35.808 -17.529,70 -53.367,76.242c-35.617,6.204 -69.546,-17.546 -75.904,-53.133c-6.362,-35.587 17.238,-69.621 52.796,-76.137Z" style="fill:#003cab;fill-rule:nonzero;"/><path d="M1079.358,2680.05c109.825,52.242 209.908,87.7 332.433,97.729c-7.837,17.371 -19.667,44.05 -23.625,62.387c47.133,18.987 119.017,45.725 161.954,68.471c68.217,36.146 140.108,76.971 207.758,114.787c48.683,27.217 118.138,62.725 163.379,92.013c61.438,33.246 132.246,77.337 196.987,102.688c23.633,9.25 94.625,-31.071 120.433,-43.958c109.629,-54.383 215.883,-115.325 318.183,-182.492c71.712,-47.387 108.396,-85.542 194.583,-106.738c32.637,-8.029 100.8,-36.087 131.808,-50.617c-8.817,-21.067 -18.946,-43.946 -26.767,-65.229c132.546,-10.371 206.713,-28.596 327.392,-86.608l16.021,136.2c-266.467,226.833 -560.242,419.471 -874.496,573.429l-116.154,56.9c-24.75,12.033 -50.679,25.854 -76.275,35.363c-76.104,-28.704 -160.462,-71.717 -233.567,-107.575c-8.704,-4.267 -47.063,-23.483 -52.125,-27.925c-35.008,-15.067 -118.163,-64.046 -153.963,-84.871c-167.392,-96.45 -328.167,-203.963 -481.246,-321.817c-42.992,-32.867 -114.521,-87.467 -153.033,-123.642c3.196,-39.571 13.55,-98.546 20.317,-138.496Z" style="fill:#fff300;fill-rule:nonzero;"/><path d="M1079.358,2680.05c109.825,52.242 209.908,87.7 332.433,97.729c-7.837,17.371 -19.667,44.05 -23.625,62.387c47.133,18.987 119.017,45.725 161.954,68.471c68.217,36.146 140.108,76.971 207.758,114.787c48.683,27.217 118.138,62.725 163.379,92.013l-2.929,1.617c-21.079,-9.713 -39.55,-23.479 -61.988,-33.867c-30.087,-13.929 -60.254,-37.442 -91,-51.104c-43.725,-21.854 -96.292,-21.171 -142.954,-33.554c-15.792,-4.192 -39.637,-18.325 -55.883,-22.95c-12.067,-2.921 -26.479,1.808 -38.279,0.192c-12.992,-1.783 -35.746,-21.704 -49.004,-17.2c-13.933,4.737 -13.633,21.054 -21.354,33.158c-7.396,11.596 -31.137,19.946 -23.442,37.129c22.25,38.758 52.833,77.283 93.1,96.05c13.533,26.883 87.325,72.225 93.079,90.875c43.117,27.604 173.317,101.963 225.954,129.004c0.408,0.921 0.817,1.842 1.225,2.762l-0.5,1.325c-35.008,-15.067 -118.163,-64.046 -153.963,-84.871c-167.392,-96.45 -328.167,-203.963 -481.246,-321.817c-42.992,-32.867 -114.521,-87.467 -153.033,-123.642c3.196,-39.571 13.55,-98.546 20.317,-138.496Z" style="fill:#ffed26;fill-rule:nonzero;"/><path d="M2707.65,1368.862c135.308,42.692 286.608,85.279 423.338,124.158c8.617,78.446 16.392,157.767 28.421,235.783c-51.85,120.329 -56.538,244.892 -30.383,372.346c7.429,36.2 26.296,72.579 30.792,109.562c0.875,7.208 -8.496,14.933 -13.417,19.908c-6.421,-62.008 -13.062,-98.563 -31.892,-158.246c-10.717,-31.621 -27.729,-73.05 -42.417,-102.771c-37.279,25.354 -112.721,100.679 -139.3,137.704c-15.221,-91.6 -24.025,-189.596 -36.558,-282.012c-5.804,-42.804 -8.421,-86.271 -15.546,-129.171c-77.812,-20.558 -167.858,-51.258 -245.517,-75.85c42.321,-43.625 108.004,-107.913 114.933,-169.896c-12.6,-28.283 -29.092,-53.721 -42.454,-81.517Z" style="fill:#e3c000;fill-rule:nonzero;"/><path d="M1620.704,1354.563l10.896,19.142c-37.558,39.596 -76.329,92.546 -77.65,150.933c-0.821,36.154 30.617,73.008 53.754,98.65l-234.117,69.217c-6.471,72.042 -19.417,152.842 -27.683,225.575c-5.658,49.729 -13.996,134.183 -24,180.5c-11.379,-14.046 -24.354,-27.558 -36.142,-41.225c-48.558,-56.3 -108.983,-135.075 -131.671,-1.013l-3.154,-7.35c14.867,-120.667 -4.175,-215.787 -49.888,-326.529c10.871,-75.671 20.646,-151.496 29.312,-227.454c60.096,-14.079 120.788,-35.208 180.179,-52.321c102.275,-29.463 206.971,-62.071 310.162,-88.125Z" style="fill:#e3c000;fill-rule:nonzero;"/><path d="M1776.721,1367.425c4.871,-0.338 9.754,-0.542 14.642,-0.608c63.542,-0.4 72.892,46.292 96.071,88.908c10.446,19.396 23.675,37.154 39.267,52.712c78.246,77.579 189.479,83.067 292.375,82.988c28.192,42.938 26.733,83.225 1.5,126.996c-35.567,61.688 -87.583,89.475 -154.579,107.475c-51.262,10.475 -131.292,14.208 -183.45,3.717c-21.908,-20.929 -31.408,-52.458 -52.229,-73.683c-70.254,-71.608 -184.121,-139.392 -221.604,-234.746c7.108,-28.942 21.896,-59.604 40.475,-82.921c31.425,-39.604 77.304,-65.083 127.533,-70.837Z" style="fill:#2a74ff;fill-rule:nonzero;"/><path d="M3490.092,1432.971c5.046,3.387 4.588,3.858 7.321,10.667c41.417,103.013 69.612,317.204 27.833,420.142c-51.35,126.533 -169.387,245.9 -293.975,298.571c54.188,-140.8 116.379,-279.575 169.396,-421.017c13.871,-37 29.354,-85.642 46.65,-119.996c-7.958,-5.017 -8.279,-5.338 -15.296,-3.896c-44.158,35.6 -198.371,447.125 -229.667,531.621c-78.95,-227.821 -13.558,-458.229 161.258,-620.004c38.021,-35.188 84.046,-66.404 126.479,-96.087Z" style="fill:#75c000;fill-rule:nonzero;"/><path d="M766.046,1428.779c91.863,68.633 184.571,144.912 246.617,242.996c71.35,112.883 100.046,247.537 80.917,379.704c-5.112,36.996 -13.992,68.346 -22.167,104.487c-9.75,-30.633 -27.421,-71.075 -40.092,-101.492c-25.021,-60.667 -50.892,-120.979 -77.604,-180.921c-23.5,-54.267 -47.462,-108.329 -71.879,-162.188c-15.35,-34.275 -39.771,-89.608 -58.442,-120.667l-2.871,1.383c1.925,112.408 167.104,475.171 224.1,580.208c-130.404,-57.175 -285.975,-203.154 -315.737,-345.604c-25.821,-123.587 -2.4,-278.262 37.158,-397.908Z" style="fill:#75c000;fill-rule:nonzero;"/><path d="M3500.425,2221.592c2.733,-0.471 8.533,-0.762 11.554,-1.012l2.442,2.704c-0.654,8.075 -10.912,24.908 -15.308,33.546c-38.629,76.258 -86.508,147.462 -142.562,212.004c-128.804,149.304 -327.712,223.871 -520.692,238.133c4.238,-12.954 14.408,-30.088 21.192,-42.533c13.604,-7.283 28.629,-13.321 42.321,-20.646c99.283,-53.142 198.187,-104.775 289.821,-170.4c37.938,-26.25 65.083,-49.692 98.425,-81.013c-66.233,31.342 -151.375,83.188 -214.838,120.638c-60.467,35.779 -121.729,70.196 -183.737,103.225c29.296,-51.346 78.442,-125.088 114.033,-172.637c106.533,-142.329 328.117,-199.742 497.35,-222.008Z" style="fill:#75c000;fill-rule:nonzero;"/><path d="M748.258,2219.167c120.492,18.533 235.771,40.95 347.617,91.542c88.479,40.025 142.679,100.296 197.108,178.075c26.575,37.975 51.75,73.363 76.179,113.1c-50.058,-23.183 -83.246,-42.779 -131.225,-68.942l-249.825,-139.204c25.2,30.542 57.933,56.938 88.958,81.479c108.071,77.65 188.154,122.037 313.783,172.637c13.083,20.342 21.596,42.304 30.133,64.833c-77.542,-3.833 -152.233,-25.188 -223.842,-51.633c-167.971,-62.029 -281.9,-158.963 -375.783,-310.442c-25.625,-41.342 -53.087,-86.504 -73.104,-131.446Z" style="fill:#75c000;fill-rule:nonzero;"/><path d="M2569.229,1337.108c7.667,0.188 26.583,6.971 33.888,10.254c43.333,19.487 74.679,68.404 90.825,111.287c-22.075,44.475 -45.033,71.425 -80.504,106.283c-18.538,18.217 -30.521,31.517 -45.5,51.479c-19.183,25.567 -23.967,77.108 -36.325,94.567c-32.825,46.392 -146.804,71.579 -200.854,81.725c-36.6,5.175 -63.129,6.933 -100.125,7.242c69.275,-82.621 82.713,-137.725 40.1,-238.054c48.533,-51.825 102.708,-98.067 161.517,-137.858c45.213,-30.233 91.121,-55.325 136.979,-86.925Z" style="fill:#4f8dff;fill-rule:nonzero;"/><path d="M2304.829,884.196c10.996,-0.562 22.317,-0.525 33.317,-0.079c20.775,0.846 40.929,4.504 55.287,20.946c33.513,38.371 49.871,157.171 45.921,206.492c-6.496,81.112 -69.004,139.017 -127.821,188.6c-53.233,44.875 -240.25,174.954 -305.75,167.45c-23.783,-2.725 -47.183,-38.833 -61.667,-56.671l0.446,-2.292l11,-3.633c80.083,-25.808 210.292,-108.537 272.329,-169.412c48.946,-49.217 98.908,-118.6 111.308,-187.892c2.067,-11.554 -14.546,-25.588 -26.829,-22.05c-19.958,5.75 -33.396,33.912 -46.45,49.904c-17.125,-76.033 -31.679,-111.287 -97.388,-159.087c49.675,-18.967 83.383,-29.254 136.296,-32.275Z" style="fill:#4f8dff;fill-rule:nonzero;"/><path d="M2744.775,2752.208l4.892,0.308c3.354,4.417 17.683,50.863 20.725,60.075c-316.283,105.604 -653.562,132.429 -982.562,78.137c-99.488,-16.746 -185.446,-39.696 -281.833,-67.133c-10.325,-3.458 -20.633,-6.971 -30.921,-10.546c5.433,-18.896 13.85,-40.287 20.696,-58.975c44.075,11.729 85.588,24.621 130.525,34.538c277.629,61.283 558.725,80.587 839.796,30.7c93.35,-16.571 187.838,-40.537 278.683,-67.104Z" style="fill:#ffed26;fill-rule:nonzero;"/><path d="M1752,1005.054l20.933,-0.275c-0.542,79.817 20.192,97.062 49.004,169.371c19.729,49.512 24.388,90.133 25.592,142.308c-63.637,-14.896 -95.496,-7.808 -156.092,16.892l-15.829,6.475c-36.963,-70.042 -81.05,-212.3 -82.671,-291.717c46.117,-34.921 103.446,-40.15 159.062,-43.054Z" style="fill:#4f8dff;fill-rule:nonzero;"/><path d="M2466.508,938.229c82.567,20 222.45,73.188 193.196,181.475c-26.804,99.217 -92.125,155.479 -175.633,207.704c-33.688,19.863 -74.529,45.362 -108.983,62.371c4.25,-26.838 6.15,-53.642 8.463,-80.713c33.513,-34.112 68.471,-65.667 88.771,-110.55c36.779,-81.304 23.229,-179.292 -5.812,-260.288Z" style="fill:#2672ff;fill-rule:nonzero;"/><path d="M2088.958,743.842c44.225,1.692 103.733,68.004 127.3,102.079c-33.579,8.929 -67.075,21.113 -100.008,32.433c-35.45,-12.087 -59.121,-8.854 -49.713,35.629c-22.454,16.721 -40.779,38.796 -57.871,60.679c-10.688,14.704 -19.083,27.883 -28.767,43.321c-17.812,-13.65 -36.071,-26.288 -55.654,-36.542c-31.754,-16.625 6.054,-75.796 20.208,-96.871c33.488,-49.85 87.033,-117.738 144.504,-140.729Z" style="fill:#4f8dff;fill-rule:nonzero;"/><path d="M1834.371,953.129l22.708,8.25c-0.842,13.283 -1.625,30.638 1.708,43.521c27.662,106.908 130.304,206.354 199.846,286.379c-14.538,9.562 -27.971,16.65 -43.242,24.825c-40.575,23.046 -68.213,29.904 -113.958,30.562c3.154,-106.071 -10.862,-167.421 -58.317,-263.367c-20.608,-41.667 -25.4,-85.875 -8.746,-130.171Z" style="fill:#075cf9;fill-rule:nonzero;"/><path d="M2968.304,2153.904c0.133,0.175 17.517,120.075 24.767,141.488c-88.963,67.146 -133.079,163.775 -182.833,260.754l-8.296,14.45c-1.708,-23.358 -3.421,-50.533 -0.308,-73.804c16.925,-126.633 87.887,-245.717 166.671,-342.888Z" style="fill:#75c000;fill-rule:nonzero;"/><path d="M1289.85,2155.525c17.588,13.538 56.058,70.65 70.05,90.463c51.825,73.392 117.413,226.571 99.192,315.792c-5.242,-0.529 -5.15,-2.779 -7.454,-6.804c-47.775,-83.496 -91.329,-182.058 -164.154,-246.112l2.367,-153.338Z" style="fill:#75c000;fill-rule:nonzero;"/><path d="M3051.533,2062.013c24.179,25.971 48.275,145.496 53.821,183.254c-18.817,9.233 -40.608,17.875 -60.088,26.083l-32.092,12.425c-7.162,-59.446 -13.679,-103.463 -15.892,-163.321c17.592,-20.146 36.238,-36.65 54.25,-58.442Z" style="fill:#75c000;fill-rule:nonzero;"/><path d="M1208.933,2055.954c11.408,10.262 39.692,48.075 56.988,65.496c-0.821,9.629 -2.204,20.137 -3.513,29.717c-6.358,46.625 -7.913,93.021 -9.521,140.046l-19.921,-9.908c-23.433,-11.404 -47.271,-21.454 -71.021,-33.254c10.2,-67.242 30.433,-126.275 46.987,-192.096Z" style="fill:#75c000;fill-rule:nonzero;"/><path d="M2305.617,1374.975c3.017,4.917 5.117,46.121 6.146,56.225c-16.563,32.2 -77.525,80.975 -107.4,101.758c-45.596,1.233 -78.058,-2.742 -122.079,-10.379l-24.925,-5.883c28.158,-12.85 57.008,-23.642 85.046,-37.667c58.075,-29.058 111.825,-64.562 163.213,-104.054Z" style="fill:#075cf9;fill-rule:nonzero;"/><path d="M2111.396,1989.425c-15.896,-7.883 -33.079,-15.504 -38.792,-34.225c-25.054,-82.05 85.85,-101.146 106.442,-28.596c8.133,28.65 -18.875,51.629 -42.804,63.117c6.708,21.325 26.6,63.946 29.875,77.217l-1.296,3.646c-13.613,-29.296 -54.017,7.55 -67.013,-30.883l-5.117,1.3l18.704,-51.575Z" style="fill:#ffed26;fill-rule:nonzero;"/><path d="M2079.167,1130.621c26.233,3.896 101.679,33.392 126.817,44.912c-21.896,26.596 -35.037,37.179 -61.363,58.671c-12.2,10.137 -22.575,18.271 -35.392,27.608c-26.037,-23.579 -50.025,-49.325 -71.708,-76.967c10.054,-14.917 30.029,-39.254 41.646,-54.225Z" style="fill:#4f8dff;fill-rule:nonzero;"/><path d="M2109.771,947.337c10.338,-0.079 23.021,9.554 31.154,15.929c57.425,45.012 67.992,89.137 76.146,158.004c-22.837,-9.421 -45.887,-18.308 -69.137,-26.658l-22.238,-8.575c6.429,-4.608 15.708,-10.654 20.783,-16.138c22.338,-24.146 8.113,-51.896 -23.512,-53.225c-28.812,-1.208 -54,2.171 -81.392,4.9c18.067,-26.725 43.362,-53.721 68.196,-74.238Z" style="fill:#075cf9;fill-rule:nonzero;"/><path d="M2053.742,1071.475l0.946,1c-0.917,5.158 -46.533,60.275 -52.95,68.287l-12.462,-16.292c-6.942,-9.171 -11.725,-16.842 -17.754,-26.504c30.9,-13.696 49.862,-18.608 82.221,-26.492Z" style="fill:#4f8dff;fill-rule:nonzero;"/><path d="M1142.388,2112.679l4.517,-0.475c-6.338,34.504 -4.9,84.754 -9.45,122.946c-7.579,-11.825 -12,-18.525 -17.879,-31.308c7.108,-27.642 17.5,-63.796 22.812,-91.163Z" style="fill:#ffed26;fill-rule:nonzero;"/><path d="M1150.938,2048.992l3.154,7.35c-2.758,18.571 -5.158,37.196 -7.188,55.863l-4.517,0.475c3.442,-21.058 5.6,-42.504 8.55,-63.688Z" style="fill:#ffcf3d;fill-rule:nonzero;"/><defs><linearGradient id="_Linear1" x1="0" y1="0" x2="1" y2="0" gradientUnits="userSpaceOnUse" gradientTransform="matrix(-873.439917,-393.049625,393.049625,-873.439917,2762.070958,2582.203667)"><stop offset="0" style="stop-color:#ffcf3d;stop-opacity:1"/><stop offset="1" style="stop-color:#fdf43e;stop-opacity:1"/></linearGradient></defs></svg>