<svg width="160" height="43" viewBox="0 0 160 43" fill="none" xmlns="http://www.w3.org/2000/svg">
<path d="M146.557 0.75L159.25 7.93652V16.75H152.262V28.75H158.916L159.229 36.0703L146.58 42.2188L13.7334 42.249L0.75 36.0576V28.75H6.9043V16.75H1.12109L0.767578 7.93262L13.7578 0.75H146.557Z" fill="url(#paint0_radial_156_237)" stroke="#FFF300" stroke-width="1.5"/>
<path d="M44.8567 29.2C43.5367 29.2 42.4233 28.8933 41.5167 28.28C40.61 27.6667 39.9233 26.8133 39.4567 25.72C39.0033 24.6133 38.7767 23.32 38.7767 21.84C38.7767 20.4 39.0167 19.1333 39.4967 18.04C39.99 16.9333 40.71 16.0733 41.6567 15.46C42.6167 14.8333 43.7967 14.52 45.1967 14.52C46.5567 14.52 47.57 14.7333 48.2367 15.16C48.9033 15.5867 49.2367 16.12 49.2367 16.76C49.2367 17.1867 49.07 17.5267 48.7367 17.78C48.4033 18.0333 47.99 18.16 47.4967 18.16C47.4967 17.7467 47.4233 17.3467 47.2767 16.96C47.13 16.56 46.8833 16.2333 46.5367 15.98C46.2033 15.7133 45.7433 15.58 45.1567 15.58C43.65 15.58 42.5767 16.1267 41.9367 17.22C41.31 18.3 40.9967 19.84 40.9967 21.84C40.9967 23.0267 41.1367 24.08 41.4167 25C41.71 25.9067 42.1633 26.6133 42.7767 27.12C43.39 27.6267 44.1833 27.88 45.1567 27.88C46.13 27.88 46.89 27.7133 47.4367 27.38C47.9967 27.0333 48.4433 26.6333 48.7767 26.18C48.8833 26.2467 48.97 26.3467 49.0367 26.48C49.1167 26.6 49.1567 26.76 49.1567 26.96C49.1567 27.2933 49.0033 27.6333 48.6967 27.98C48.39 28.3267 47.9167 28.62 47.2767 28.86C46.65 29.0867 45.8433 29.2 44.8567 29.2ZM55.6618 29.2C54.2218 29.2 53.0885 28.74 52.2618 27.82C51.4351 26.9 51.0218 25.5 51.0218 23.62C51.0218 21.7533 51.4151 20.3667 52.2018 19.46C53.0018 18.54 54.1751 18.08 55.7218 18.08C57.1618 18.08 58.2951 18.54 59.1218 19.46C59.9485 20.3667 60.3618 21.7533 60.3618 23.62C60.3618 25.5 59.9618 26.9 59.1618 27.82C58.3751 28.74 57.2085 29.2 55.6618 29.2ZM55.7018 28.16C56.7018 28.16 57.4018 27.78 57.8018 27.02C58.2151 26.2467 58.4218 25.1133 58.4218 23.62C58.4218 22.1267 58.2151 21.0067 57.8018 20.26C57.3885 19.5133 56.6818 19.14 55.6818 19.14C54.6818 19.14 53.9751 19.5133 53.5618 20.26C53.1618 21.0067 52.9618 22.1267 52.9618 23.62C52.9618 25.1133 53.1685 26.2467 53.5818 27.02C53.9951 27.78 54.7018 28.16 55.7018 28.16ZM62.0248 29V28.16H62.2848C62.7381 28.16 63.1048 28.08 63.3848 27.92C63.6781 27.7467 63.8248 27.3467 63.8248 26.72V20.48C63.8248 19.8933 63.6781 19.52 63.3848 19.36C63.0914 19.2 62.7248 19.12 62.2848 19.12H62.2248V18.28H65.3648L65.6248 19.9H65.7248C66.1248 19.1533 66.5714 18.6667 67.0648 18.44C67.5714 18.2 68.1314 18.08 68.7448 18.08C69.3848 18.08 69.9648 18.22 70.4848 18.5C71.0048 18.7667 71.3914 19.2333 71.6448 19.9H71.8048C72.2048 19.1533 72.6715 18.6667 73.2048 18.44C73.7514 18.2 74.3314 18.08 74.9448 18.08C75.9715 18.08 76.7715 18.3933 77.3448 19.02C77.9181 19.6333 78.2048 20.6267 78.2048 22V26.72C78.2048 27.3467 78.3448 27.7467 78.6248 27.92C78.9181 28.08 79.2915 28.16 79.7448 28.16H79.8048V29H76.3248V22.1C76.3248 21.2333 76.1648 20.56 75.8448 20.08C75.5381 19.6 74.9981 19.36 74.2248 19.36C73.6781 19.36 73.2381 19.5 72.9048 19.78C72.5848 20.0467 72.3514 20.4067 72.2048 20.86C72.0714 21.3133 72.0048 21.8067 72.0048 22.34V26.72C72.0048 27.3467 72.1448 27.7467 72.4248 27.92C72.7181 28.08 73.0915 28.16 73.5448 28.16H73.6048V29H70.1248V22.1C70.1248 21.2333 69.9648 20.56 69.6448 20.08C69.3381 19.6 68.7981 19.36 68.0248 19.36C67.4514 19.36 66.9914 19.5133 66.6448 19.82C66.3114 20.1133 66.0714 20.5067 65.9248 21C65.7781 21.4933 65.7048 22.0267 65.7048 22.6V26.82C65.7048 27.4067 65.8648 27.78 66.1848 27.94C66.5181 28.0867 66.9048 28.16 67.3448 28.16H67.4048V29H62.0248ZM80.731 33.8V32.96H80.891C81.3444 32.96 81.731 32.8733 82.051 32.7C82.371 32.54 82.531 32.1467 82.531 31.52V20.48C82.531 19.8933 82.3644 19.52 82.031 19.36C81.711 19.2 81.331 19.12 80.891 19.12H80.631V18.28H84.131L84.331 20.08H84.411C84.7177 19.4667 85.111 18.98 85.591 18.62C86.071 18.26 86.6977 18.08 87.471 18.08C88.791 18.08 89.7977 18.5267 90.491 19.42C91.1977 20.3 91.551 21.7 91.551 23.62C91.551 25.5533 91.1977 26.9667 90.491 27.86C89.7977 28.7533 88.791 29.2 87.471 29.2C86.6977 29.2 86.0644 29.04 85.571 28.72C85.091 28.3867 84.7044 27.96 84.411 27.44H84.331C84.3577 27.8267 84.3777 28.24 84.391 28.68C84.4044 29.1067 84.411 29.4467 84.411 29.7V31.62C84.411 32.2067 84.571 32.5733 84.891 32.72C85.2244 32.88 85.611 32.96 86.051 32.96H86.111V33.8H80.731ZM87.151 27.92C88.031 27.92 88.6577 27.5533 89.031 26.82C89.4177 26.0733 89.611 25 89.611 23.6C89.611 22.1733 89.4177 21.1133 89.031 20.42C88.6577 19.7133 88.0244 19.36 87.131 19.36C86.091 19.36 85.3777 19.7133 84.991 20.42C84.6044 21.1133 84.411 22.18 84.411 23.62C84.411 25.0067 84.6044 26.0733 84.991 26.82C85.3777 27.5533 86.0977 27.92 87.151 27.92ZM93.3162 29V28.16H93.3762C93.8295 28.16 94.2162 28.08 94.5362 27.92C94.8562 27.7467 95.0162 27.3467 95.0162 26.72V20.48C95.0162 19.8933 94.8495 19.52 94.5162 19.36C94.1962 19.2 93.8162 19.12 93.3762 19.12H93.3162V18.28H96.3962L96.7762 20.26H96.8762C97.0495 19.86 97.2362 19.4933 97.4362 19.16C97.6362 18.8267 97.9029 18.5667 98.2362 18.38C98.5695 18.18 99.0295 18.08 99.6162 18.08C100.35 18.08 100.89 18.2067 101.236 18.46C101.596 18.7133 101.776 19.0733 101.776 19.54C101.776 19.9533 101.63 20.2933 101.336 20.56C101.056 20.8267 100.583 20.96 99.9162 20.96C99.9162 20.4133 99.8362 20.02 99.6762 19.78C99.5162 19.5267 99.2429 19.4 98.8562 19.4C98.4829 19.4 98.1695 19.5467 97.9162 19.84C97.6629 20.1333 97.4629 20.5067 97.3162 20.96C97.1695 21.4133 97.0629 21.8867 96.9962 22.38C96.9295 22.86 96.8962 23.2933 96.8962 23.68V26.82C96.8962 27.4067 97.0562 27.78 97.3762 27.94C97.7095 28.0867 98.0962 28.16 98.5362 28.16H99.0962V29H93.3162ZM105.78 29.2C104.886 29.2 104.146 28.94 103.56 28.42C102.973 27.9 102.68 27.0933 102.68 26C102.68 24.9333 103.053 24.1467 103.8 23.64C104.56 23.1333 105.706 22.8533 107.24 22.8L108.9 22.74V21.54C108.9 21.06 108.86 20.64 108.78 20.28C108.7 19.9067 108.526 19.6133 108.26 19.4C107.993 19.1867 107.586 19.08 107.04 19.08C106.533 19.08 106.146 19.1733 105.88 19.36C105.613 19.5467 105.433 19.8067 105.34 20.14C105.26 20.46 105.22 20.8333 105.22 21.26C104.66 21.26 104.233 21.1667 103.94 20.98C103.66 20.78 103.52 20.4533 103.52 20C103.52 19.5333 103.68 19.16 104 18.88C104.333 18.6 104.773 18.4 105.32 18.28C105.866 18.1467 106.466 18.08 107.12 18.08C108.346 18.08 109.26 18.34 109.86 18.86C110.473 19.38 110.78 20.2733 110.78 21.54V26.72C110.78 27.28 110.873 27.66 111.06 27.86C111.246 28.06 111.566 28.16 112.02 28.16H112.08V29H109.38L109.06 27.28H108.9C108.62 27.6533 108.346 27.9867 108.08 28.28C107.813 28.56 107.5 28.7867 107.14 28.96C106.793 29.12 106.34 29.2 105.78 29.2ZM106.24 27.96C107.053 27.96 107.7 27.7133 108.18 27.22C108.66 26.7133 108.9 26.0333 108.9 25.18V23.56L107.62 23.62C106.486 23.6733 105.7 23.9067 105.26 24.32C104.833 24.72 104.62 25.3133 104.62 26.1C104.62 27.34 105.16 27.96 106.24 27.96ZM113.609 29V28.16H113.669C114.122 28.16 114.509 28.08 114.829 27.92C115.149 27.7467 115.309 27.3467 115.309 26.72V20.48C115.309 19.8933 115.142 19.52 114.809 19.36C114.489 19.2 114.109 19.12 113.669 19.12H113.609V18.28H116.689L117.069 20.26H117.169C117.342 19.86 117.529 19.4933 117.729 19.16C117.929 18.8267 118.196 18.5667 118.529 18.38C118.862 18.18 119.322 18.08 119.909 18.08C120.642 18.08 121.182 18.2067 121.529 18.46C121.889 18.7133 122.069 19.0733 122.069 19.54C122.069 19.9533 121.922 20.2933 121.629 20.56C121.349 20.8267 120.876 20.96 120.209 20.96C120.209 20.4133 120.129 20.02 119.969 19.78C119.809 19.5267 119.536 19.4 119.149 19.4C118.776 19.4 118.462 19.5467 118.209 19.84C117.956 20.1333 117.756 20.5067 117.609 20.96C117.462 21.4133 117.356 21.8867 117.289 22.38C117.222 22.86 117.189 23.2933 117.189 23.68V26.82C117.189 27.4067 117.349 27.78 117.669 27.94C118.002 28.0867 118.389 28.16 118.829 28.16H119.389V29H113.609Z" fill="white"/>
<defs>
<radialGradient id="paint0_radial_156_237" cx="0" cy="0" r="1" gradientUnits="userSpaceOnUse" gradientTransform="translate(80 21.5) rotate(180) scale(80 239.134)">
<stop offset="0.153846" stop-color="#A3002B" stop-opacity="0.86"/>
<stop offset="0.807692" stop-color="#3C0010"/>
</radialGradient>
</defs>
</svg>
