<svg width="459" height="577" viewBox="0 0 459 577" fill="none" xmlns="http://www.w3.org/2000/svg">
<path d="M10.2519 21.7785C38.3684 17.616 22.3816 18.966 84.5695 20.8785C113.938 21.7672 110.182 17.616 125.34 17.9197C127.387 17.9647 134.729 20.1472 137.977 20.3272C146.842 20.7997 151.799 19.5397 160.68 19.8322C165.756 19.9897 170.442 22.206 175.517 22.1947C189.609 22.1497 203.532 19.731 217.624 19.6635C235.083 19.5847 257.786 21.531 275.972 20.8672C290.335 20.3497 305.526 18.876 319.821 17.886C340.088 16.491 350.915 20.4735 370.979 22.251C392.667 24.1635 379.878 19.6635 407.098 19.8435C424.269 19.956 440.797 21.126 457.647 21.756" stroke="#D6D3D1" stroke-width="2.07418"/>
<path d="M1.27692 545.1C29.9558 541.4 13.6492 542.6 77.0809 544.3C107.037 545.09 103.206 541.4 118.667 541.67C120.755 541.71 128.244 543.65 131.557 543.81C140.599 544.23 145.655 543.11 154.714 543.37C159.891 543.51 164.671 545.48 169.847 545.47C184.221 545.43 198.423 543.28 212.797 543.22C230.604 543.15 253.761 544.88 272.311 544.29C286.961 543.83 302.457 542.52 317.038 541.64C337.71 540.4 348.754 543.94 369.219 545.52C391.341 547.22 378.295 543.22 406.06 543.38C423.574 543.48 440.433 544.52 457.62 545.08" stroke="#D6D3D1" stroke-width="2.07418"/>
<path d="M45.3761 0.757935C43.0314 27.9905 45.3969 -6.09433 46.6211 45.7649C46.8597 55.4411 44.3594 54.0084 42.4296 62.7398C42.1359 64.4473 42.1359 66.1924 42.4296 67.8998C43.436 75.5203 45.8949 82.7775 46.1335 90.533C46.3929 99.2645 43.7576 107.819 43.8925 116.572C44.2452 140.139 48.9762 132.103 46.8286 152.131C46.3514 156.657 44.0066 160.603 43.8925 165.192C43.6331 176.093 45.7911 186.89 45.7496 197.792C45.7185 205.028 43.6124 217.56 43.685 219.262C44.6291 239.684 46.8286 223.83 46.2061 253.565C45.3346 294.315 43.0106 288.605 43.2492 306.535C43.3841 316.834 45.3657 326.936 45.6355 337.225C45.8222 344.68 44.4009 352.092 44.6291 359.547C44.7744 364.219 46.9427 368.579 46.7456 373.251C45.2931 407.887 41.5996 387.018 43.0106 410.679C45.3969 451.129 46.3825 491.256 43.5086 531.57C43.2596 535.048 43.8199 538.983 44.6291 543.094C46.8701 554.401 46.8701 567.877 45.5836 575.528" stroke="#D6D3D1" stroke-width="2.07581"/>
<path d="M425.076 0.757935C422.731 27.9905 425.097 -6.09433 426.321 45.7649C426.56 55.4411 424.059 54.0084 422.13 62.7398C421.836 64.4473 421.836 66.1924 422.13 67.8998C423.136 75.5203 425.595 82.7775 425.833 90.533C426.093 99.2645 423.458 107.819 423.592 116.572C423.945 140.139 428.676 132.103 426.529 152.131C426.051 156.657 423.707 160.603 423.592 165.192C423.333 176.093 425.491 186.89 425.45 197.792C425.418 205.028 423.312 217.56 423.385 219.262C424.329 239.684 426.529 223.83 425.906 253.565C425.035 294.315 422.711 288.605 422.949 306.535C423.084 316.834 425.066 326.936 425.335 337.225C425.522 344.68 424.101 352.092 424.329 359.547C424.474 364.219 426.643 368.579 426.446 373.251C424.993 407.887 421.3 387.018 422.711 410.679C425.097 451.129 426.082 491.256 423.209 531.57C422.96 535.048 423.52 538.983 424.329 543.094C426.57 554.401 426.57 567.877 425.284 575.528" stroke="#D6D3D1" stroke-width="2.07581"/>
</svg>
