<svg width="246" height="67" viewBox="0 0 246 67" fill="none" xmlns="http://www.w3.org/2000/svg">
<path d="M225.434 0.75L245.25 12.1201V26.5176H234.505V44.3779H244.719L245.229 56.4639L225.458 66.2012L21.0264 66.249L0.75 56.4492V44.3779H10.2119V26.5176H1.33691L0.766602 12.1152L21.0518 0.75H225.434Z" fill="url(#paint0_radial_270_24)" stroke="#FFF300" stroke-width="1.5"/>
<path d="M63.2226 46.6689C60.748 46.6689 58.6893 46.1782 57.0466 45.1969C55.404 44.2155 54.1773 42.8502 53.3666 41.1009C52.556 39.3302 52.1506 37.2609 52.1506 34.8929C52.1506 32.5889 52.5666 30.5622 53.3986 28.8129C54.2306 27.0422 55.468 25.6662 57.1106 24.6849C58.7533 23.6822 60.78 23.1809 63.1906 23.1809C64.8333 23.1809 66.188 23.3515 67.2546 23.6929C68.3426 24.0129 69.1533 24.4502 69.6866 25.0049C70.22 25.5595 70.4866 26.1889 70.4866 26.8929C70.4866 27.6822 70.1453 28.3435 69.4626 28.8769C68.78 29.4102 67.788 29.6769 66.4866 29.6769C66.4866 28.9729 66.38 28.2795 66.1666 27.5969C65.9533 26.9142 65.5906 26.3489 65.0786 25.9009C64.5666 25.4529 63.8626 25.2289 62.9666 25.2289C61.6226 25.2289 60.5453 25.6129 59.7346 26.3809C58.9453 27.1275 58.38 28.2155 58.0386 29.6449C57.6973 31.0742 57.5266 32.8235 57.5266 34.8929C57.5266 36.9409 57.7293 38.6475 58.1346 40.0129C58.5613 41.3782 59.244 42.4022 60.1826 43.0849C61.1426 43.7675 62.412 44.1089 63.9906 44.1089C65.036 44.1089 65.932 43.9595 66.6786 43.6609C67.4253 43.3409 68.0546 42.9462 68.5666 42.4769C69.1 42.0075 69.548 41.5382 69.9106 41.0689C70.0813 41.1969 70.2093 41.3889 70.2946 41.6449C70.4013 41.9009 70.4546 42.1675 70.4546 42.4449C70.4546 42.8929 70.3266 43.3622 70.0706 43.8529C69.836 44.3435 69.4413 44.8022 68.8866 45.2289C68.332 45.6555 67.5853 46.0075 66.6466 46.2849C65.7293 46.5409 64.588 46.6689 63.2226 46.6689ZM81.5256 46.6689C78.9656 46.6689 76.9496 45.9329 75.4776 44.4609C74.0056 42.9675 73.2696 40.7169 73.2696 37.7089C73.2696 34.7009 73.9736 32.4609 75.3816 30.9889C76.7896 29.5169 78.8696 28.7809 81.6216 28.7809C84.1816 28.7809 86.1976 29.5169 87.6696 30.9889C89.1416 32.4609 89.8776 34.7009 89.8776 37.7089C89.8776 40.7169 89.163 42.9675 87.7336 44.4609C86.3256 45.9329 84.2563 46.6689 81.5256 46.6689ZM81.5896 44.6529C82.4216 44.6529 83.0723 44.3969 83.5416 43.8849C84.0323 43.3515 84.3843 42.5729 84.5976 41.5489C84.811 40.5035 84.9176 39.2235 84.9176 37.7089C84.9176 36.1729 84.811 34.9035 84.5976 33.9009C84.3843 32.8769 84.0323 32.1089 83.5416 31.5969C83.051 31.0849 82.4003 30.8289 81.5896 30.8289C80.7576 30.8289 80.0963 31.0849 79.6056 31.5969C79.115 32.1089 78.763 32.8769 78.5496 33.9009C78.3363 34.9035 78.2296 36.1729 78.2296 37.7089C78.2296 39.2235 78.3363 40.5035 78.5496 41.5489C78.763 42.5729 79.115 43.3515 79.6056 43.8849C80.1176 44.3969 80.779 44.6529 81.5896 44.6529ZM92.0306 46.3489V44.6529H92.0946C92.5853 44.6529 93.012 44.5995 93.3746 44.4929C93.7586 44.3862 94.0573 44.1835 94.2706 43.8849C94.484 43.5649 94.5906 43.0849 94.5906 42.4449V32.8769C94.5906 32.2795 94.4946 31.8315 94.3026 31.5329C94.1106 31.2342 93.844 31.0422 93.5026 30.9569C93.1613 30.8502 92.756 30.7969 92.2866 30.7969H92.1906V29.1969H98.9106L99.3266 31.4689H99.4866C99.9133 30.6582 100.372 30.0715 100.863 29.7089C101.375 29.3249 101.919 29.0795 102.495 28.9729C103.092 28.8449 103.721 28.7809 104.383 28.7809C105.172 28.7809 105.876 28.8769 106.495 29.0689C107.135 29.2395 107.679 29.5275 108.127 29.9329C108.596 30.3169 108.959 30.8289 109.215 31.4689H109.503C109.929 30.6582 110.409 30.0715 110.943 29.7089C111.476 29.3249 112.052 29.0795 112.671 28.9729C113.289 28.8449 113.929 28.7809 114.591 28.7809C116.233 28.7809 117.524 29.2715 118.463 30.2529C119.401 31.2342 119.871 32.8022 119.871 34.9569V42.3809C119.871 43.0422 119.945 43.5329 120.095 43.8529C120.265 44.1729 120.511 44.3862 120.831 44.4929C121.151 44.5995 121.545 44.6529 122.015 44.6529H122.111V46.3489H115.007V35.8209C115.007 34.4342 114.815 33.3675 114.431 32.6209C114.047 31.8742 113.385 31.5009 112.447 31.5009C111.785 31.5009 111.241 31.7142 110.815 32.1409C110.409 32.5462 110.111 33.1009 109.919 33.8049C109.748 34.4875 109.663 35.2449 109.663 36.0769V42.3809C109.663 43.0209 109.737 43.5115 109.887 43.8529C110.057 44.1729 110.303 44.3862 110.623 44.4929C110.943 44.5995 111.337 44.6529 111.807 44.6529H111.903V46.3489H104.799V35.8209C104.799 34.4342 104.607 33.3675 104.223 32.6209C103.839 31.8742 103.177 31.5009 102.239 31.5009C101.535 31.5009 100.98 31.7355 100.575 32.2049C100.169 32.6529 99.8813 33.2609 99.7106 34.0289C99.54 34.7755 99.4546 35.5862 99.4546 36.4609V42.5729C99.4546 43.1702 99.5506 43.6182 99.7426 43.9169C99.9346 44.2155 100.201 44.4182 100.543 44.5249C100.884 44.6102 101.289 44.6529 101.759 44.6529H101.855V46.3489H92.0306ZM123.369 54.0289V52.3329H123.753C124.073 52.3329 124.404 52.2795 124.745 52.1729C125.108 52.0875 125.406 51.8955 125.641 51.5969C125.897 51.2982 126.025 50.8502 126.025 50.2529V33.1329C126.025 32.4715 125.929 31.9915 125.737 31.6929C125.545 31.3729 125.289 31.1595 124.969 31.0529C124.649 30.9462 124.286 30.8929 123.881 30.8929H123.657V29.1969H129.929L130.505 31.6929H130.633C131.102 30.8609 131.721 30.1889 132.489 29.6769C133.278 29.1435 134.292 28.8769 135.529 28.8769C137.662 28.8769 139.284 29.5915 140.393 31.0209C141.524 32.4502 142.089 34.7222 142.089 37.8369C142.089 40.9302 141.534 43.1915 140.425 44.6209C139.337 46.0289 137.748 46.7329 135.657 46.7329C134.441 46.7329 133.449 46.5089 132.681 46.0609C131.934 45.5915 131.326 44.9622 130.857 44.1729H130.633C130.676 44.4715 130.718 44.8769 130.761 45.3889C130.804 45.8795 130.836 46.3595 130.857 46.8289C130.878 47.3195 130.889 47.7249 130.889 48.0449V50.2529C130.889 50.8502 131.006 51.2982 131.241 51.5969C131.497 51.8955 131.806 52.0875 132.169 52.1729C132.532 52.2795 132.862 52.3329 133.161 52.3329H133.865V54.0289H123.369ZM134.153 44.3649C134.878 44.3649 135.454 44.1302 135.881 43.6609C136.329 43.1702 136.649 42.4449 136.841 41.4849C137.054 40.5249 137.161 39.3195 137.161 37.8689C137.161 36.4395 137.054 35.2449 136.841 34.2849C136.649 33.3035 136.329 32.5569 135.881 32.0449C135.454 31.5329 134.889 31.2769 134.185 31.2769C133.332 31.2769 132.66 31.5329 132.169 32.0449C131.7 32.5355 131.369 33.2715 131.177 34.2529C130.985 35.2342 130.889 36.4289 130.889 37.8369C130.889 39.3089 130.985 40.5355 131.177 41.5169C131.369 42.4769 131.7 43.1915 132.169 43.6609C132.66 44.1302 133.321 44.3649 134.153 44.3649ZM144.218 46.3489V44.6529H144.314C144.805 44.6529 145.231 44.5995 145.594 44.4929C145.957 44.3862 146.245 44.1729 146.458 43.8529C146.671 43.5115 146.778 43.0102 146.778 42.3489V33.0689C146.778 32.4289 146.682 31.9595 146.49 31.6609C146.298 31.3409 146.031 31.1382 145.69 31.0529C145.349 30.9462 144.943 30.8929 144.474 30.8929H144.378V29.1969H150.842L151.482 31.6929H151.642C151.919 31.0529 152.239 30.5195 152.602 30.0929C152.965 29.6662 153.423 29.3462 153.978 29.1329C154.554 28.9195 155.279 28.8129 156.154 28.8129C157.413 28.8129 158.341 29.0369 158.938 29.4849C159.535 29.9329 159.834 30.5729 159.834 31.4049C159.834 32.3862 159.471 33.1542 158.746 33.7089C158.042 34.2422 157.05 34.5089 155.77 34.5089C155.77 33.9115 155.717 33.4209 155.61 33.0369C155.525 32.6529 155.365 32.3649 155.13 32.1729C154.917 31.9595 154.607 31.8529 154.202 31.8529C153.647 31.8529 153.199 32.0449 152.858 32.4289C152.517 32.8129 152.261 33.2929 152.09 33.8689C151.919 34.4235 151.802 34.9889 151.738 35.5649C151.674 36.1409 151.642 36.6102 151.642 36.9729V42.5089C151.642 43.1275 151.738 43.5969 151.93 43.9169C152.122 44.2155 152.389 44.4182 152.73 44.5249C153.071 44.6102 153.455 44.6529 153.882 44.6529H154.906V46.3489H144.218ZM166.167 46.6689C165.228 46.6689 164.375 46.4875 163.607 46.1249C162.86 45.7409 162.263 45.1649 161.815 44.3969C161.367 43.6075 161.143 42.6262 161.143 41.4529C161.143 39.7249 161.74 38.4449 162.935 37.6129C164.13 36.7809 165.922 36.3222 168.311 36.2369L170.935 36.1409V34.3809C170.935 33.6555 170.892 33.0262 170.807 32.4929C170.722 31.9382 170.54 31.5115 170.263 31.2129C169.986 30.8929 169.548 30.7329 168.951 30.7329C168.418 30.7329 167.991 30.8822 167.671 31.1809C167.351 31.4795 167.127 31.8955 166.999 32.4289C166.871 32.9409 166.807 33.5275 166.807 34.1889C165.378 34.1889 164.3 34.0289 163.575 33.7089C162.85 33.3889 162.487 32.8342 162.487 32.0449C162.487 31.2555 162.786 30.6262 163.383 30.1569C163.98 29.6875 164.78 29.3462 165.783 29.1329C166.786 28.8982 167.884 28.7809 169.079 28.7809C171.319 28.7809 172.994 29.1862 174.103 29.9969C175.234 30.8075 175.799 32.2155 175.799 34.2209V42.3809C175.799 42.9569 175.852 43.4155 175.959 43.7569C176.087 44.0769 176.29 44.3115 176.567 44.4609C176.866 44.5889 177.25 44.6529 177.719 44.6529H177.847V46.3489H171.895L171.223 44.1409H170.935C170.466 44.7169 170.018 45.1969 169.591 45.5809C169.186 45.9435 168.716 46.2102 168.183 46.3809C167.65 46.5729 166.978 46.6689 166.167 46.6689ZM167.927 44.3329C168.546 44.3329 169.079 44.1729 169.527 43.8529C169.975 43.5115 170.316 43.0315 170.551 42.4129C170.807 41.7942 170.935 41.0689 170.935 40.2369V37.8369L169.495 37.9329C168.642 37.9755 167.97 38.1462 167.479 38.4449C166.988 38.7222 166.636 39.1275 166.423 39.6609C166.21 40.1729 166.103 40.8129 166.103 41.5809C166.103 42.1782 166.167 42.6902 166.295 43.1169C166.423 43.5222 166.626 43.8315 166.903 44.0449C167.18 44.2369 167.522 44.3329 167.927 44.3329ZM179.499 46.3489V44.6529H179.595C180.086 44.6529 180.513 44.5995 180.875 44.4929C181.238 44.3862 181.526 44.1729 181.739 43.8529C181.953 43.5115 182.059 43.0102 182.059 42.3489V33.0689C182.059 32.4289 181.963 31.9595 181.771 31.6609C181.579 31.3409 181.313 31.1382 180.971 31.0529C180.63 30.9462 180.225 30.8929 179.755 30.8929H179.659V29.1969H186.123L186.763 31.6929H186.923C187.201 31.0529 187.521 30.5195 187.883 30.0929C188.246 29.6662 188.705 29.3462 189.259 29.1329C189.835 28.9195 190.561 28.8129 191.435 28.8129C192.694 28.8129 193.622 29.0369 194.219 29.4849C194.817 29.9329 195.115 30.5729 195.115 31.4049C195.115 32.3862 194.753 33.1542 194.027 33.7089C193.323 34.2422 192.331 34.5089 191.051 34.5089C191.051 33.9115 190.998 33.4209 190.891 33.0369C190.806 32.6529 190.646 32.3649 190.411 32.1729C190.198 31.9595 189.889 31.8529 189.483 31.8529C188.929 31.8529 188.481 32.0449 188.139 32.4289C187.798 32.8129 187.542 33.2929 187.371 33.8689C187.201 34.4235 187.083 34.9889 187.019 35.5649C186.955 36.1409 186.923 36.6102 186.923 36.9729V42.5089C186.923 43.1275 187.019 43.5969 187.211 43.9169C187.403 44.2155 187.67 44.4182 188.011 44.5249C188.353 44.6102 188.737 44.6529 189.163 44.6529H190.187V46.3489H179.499Z" fill="white"/>
<defs>
<radialGradient id="paint0_radial_270_24" cx="0" cy="0" r="1" gradientUnits="userSpaceOnUse" gradientTransform="translate(123 33.5) rotate(180) scale(123 372.604)">
<stop offset="0.153846" stop-color="#A3002B" stop-opacity="0.86"/>
<stop offset="0.807692" stop-color="#3C0010"/>
</radialGradient>
</defs>
</svg>
