<svg width="160" height="43" viewBox="0 0 160 43" fill="none" xmlns="http://www.w3.org/2000/svg">
<path d="M146.557 0.75L159.25 7.93652V16.75H152.262V28.75H158.916L159.229 36.0703L146.58 42.2188L13.7334 42.249L0.75 36.0576V28.75H6.9043V16.75H1.12109L0.767578 7.93262L13.7578 0.75H146.557Z" fill="url(#paint0_radial_156_231)" stroke="#FFF300" stroke-width="1.5"/>
<path d="M44.8567 29.2C43.5367 29.2 42.4233 28.8933 41.5167 28.28C40.61 27.6667 39.9233 26.8133 39.4567 25.72C39.0033 24.6133 38.7767 23.32 38.7767 21.84C38.7767 20.4 39.0167 19.1333 39.4967 18.04C39.99 16.9333 40.71 16.0733 41.6567 15.46C42.6167 14.8333 43.7967 14.52 45.1967 14.52C46.1033 14.52 46.8567 14.62 47.4567 14.82C48.0567 15.0067 48.5033 15.2733 48.7967 15.62C49.09 15.9533 49.2367 16.3333 49.2367 16.76C49.2367 17.1867 49.07 17.5267 48.7367 17.78C48.4033 18.0333 47.99 18.16 47.4967 18.16C47.4967 17.7467 47.4233 17.3467 47.2767 16.96C47.13 16.56 46.8833 16.2333 46.5367 15.98C46.2033 15.7133 45.7433 15.58 45.1567 15.58C44.1567 15.58 43.35 15.8267 42.7367 16.32C42.1233 16.8 41.6767 17.5067 41.3967 18.44C41.13 19.3733 40.9967 20.5067 40.9967 21.84C40.9967 23.0267 41.1367 24.08 41.4167 25C41.71 25.9067 42.1633 26.6133 42.7767 27.12C43.39 27.6267 44.1833 27.88 45.1567 27.88C45.81 27.88 46.3633 27.8 46.8167 27.64C47.27 27.48 47.65 27.2733 47.9567 27.02C48.2767 26.7533 48.55 26.4733 48.7767 26.18C48.8833 26.2467 48.97 26.3467 49.0367 26.48C49.1167 26.6 49.1567 26.76 49.1567 26.96C49.1567 27.2133 49.07 27.4733 48.8967 27.74C48.7233 27.9933 48.4633 28.2333 48.1167 28.46C47.77 28.6733 47.3233 28.8533 46.7767 29C46.2433 29.1333 45.6033 29.2 44.8567 29.2ZM55.6618 29.2C54.2218 29.2 53.0885 28.74 52.2618 27.82C51.4351 26.9 51.0218 25.5 51.0218 23.62C51.0218 21.7533 51.4151 20.3667 52.2018 19.46C53.0018 18.54 54.1751 18.08 55.7218 18.08C57.1618 18.08 58.2951 18.54 59.1218 19.46C59.9485 20.3667 60.3618 21.7533 60.3618 23.62C60.3618 25.5 59.9618 26.9 59.1618 27.82C58.3751 28.74 57.2085 29.2 55.6618 29.2ZM55.7018 28.16C56.3685 28.16 56.9018 27.9933 57.3018 27.66C57.7018 27.3133 57.9885 26.8 58.1618 26.12C58.3351 25.44 58.4218 24.6067 58.4218 23.62C58.4218 22.62 58.3285 21.7933 58.1418 21.14C57.9685 20.4733 57.6818 19.9733 57.2818 19.64C56.8818 19.3067 56.3485 19.14 55.6818 19.14C55.0151 19.14 54.4818 19.3067 54.0818 19.64C53.6818 19.9733 53.3951 20.4733 53.2218 21.14C53.0485 21.7933 52.9618 22.62 52.9618 23.62C52.9618 24.6067 53.0485 25.44 53.2218 26.12C53.4085 26.8 53.7018 27.3133 54.1018 27.66C54.5018 27.9933 55.0351 28.16 55.7018 28.16ZM62.0248 29V28.16H62.2848C62.5914 28.16 62.8581 28.1267 63.0848 28.06C63.3114 27.9933 63.4914 27.86 63.6248 27.66C63.7581 27.4467 63.8248 27.1333 63.8248 26.72V20.48C63.8248 20.08 63.7581 19.7867 63.6248 19.6C63.4914 19.4 63.3048 19.2733 63.0648 19.22C62.8381 19.1533 62.5781 19.12 62.2848 19.12H62.2248V18.28H65.3648L65.6248 19.9H65.7248C65.9914 19.3933 66.2781 19.0133 66.5848 18.76C66.8914 18.4933 67.2248 18.3133 67.5848 18.22C67.9448 18.1267 68.3314 18.08 68.7448 18.08C69.1714 18.08 69.5714 18.14 69.9448 18.26C70.3314 18.38 70.6714 18.5733 70.9648 18.84C71.2581 19.0933 71.4848 19.4467 71.6448 19.9H71.8048C72.0714 19.3933 72.3648 19.0133 72.6848 18.76C73.0181 18.4933 73.3714 18.3133 73.7448 18.22C74.1314 18.1267 74.5314 18.08 74.9448 18.08C75.9715 18.08 76.7715 18.3933 77.3448 19.02C77.9181 19.6333 78.2048 20.6267 78.2048 22V26.72C78.2048 27.1333 78.2714 27.4467 78.4048 27.66C78.5381 27.86 78.7181 27.9933 78.9448 28.06C79.1848 28.1267 79.4514 28.16 79.7448 28.16H79.8048V29H76.3248V22.1C76.3248 21.2333 76.1648 20.56 75.8448 20.08C75.5381 19.6 74.9981 19.36 74.2248 19.36C73.6781 19.36 73.2381 19.5 72.9048 19.78C72.5848 20.0467 72.3514 20.4067 72.2048 20.86C72.0714 21.3133 72.0048 21.8067 72.0048 22.34V26.72C72.0048 27.1333 72.0714 27.4467 72.2048 27.66C72.3381 27.86 72.5181 27.9933 72.7448 28.06C72.9848 28.1267 73.2514 28.16 73.5448 28.16H73.6048V29H70.1248V22.1C70.1248 21.2333 69.9648 20.56 69.6448 20.08C69.3381 19.6 68.7981 19.36 68.0248 19.36C67.4514 19.36 66.9914 19.5133 66.6448 19.82C66.3114 20.1133 66.0714 20.5067 65.9248 21C65.7781 21.4933 65.7048 22.0267 65.7048 22.6V26.82C65.7048 27.2067 65.7781 27.5 65.9248 27.7C66.0848 27.8867 66.2848 28.0133 66.5248 28.08C66.7781 28.1333 67.0514 28.16 67.3448 28.16H67.4048V29H62.0248ZM80.731 33.8V32.96H80.891C81.1977 32.96 81.471 32.9267 81.711 32.86C81.9644 32.7933 82.1644 32.6533 82.311 32.44C82.4577 32.24 82.531 31.9333 82.531 31.52V20.48C82.531 20.08 82.451 19.7867 82.291 19.6C82.1444 19.4 81.9444 19.2733 81.691 19.22C81.451 19.1533 81.1844 19.12 80.891 19.12H80.631V18.28H84.131L84.331 20.08H84.411C84.7177 19.4667 85.111 18.98 85.591 18.62C86.071 18.26 86.6977 18.08 87.471 18.08C88.791 18.08 89.7977 18.5267 90.491 19.42C91.1977 20.3 91.551 21.7 91.551 23.62C91.551 25.5533 91.1977 26.9667 90.491 27.86C89.7977 28.7533 88.791 29.2 87.471 29.2C86.6977 29.2 86.0644 29.04 85.571 28.72C85.091 28.3867 84.7044 27.96 84.411 27.44H84.331C84.3577 27.6933 84.371 27.9667 84.371 28.26C84.3844 28.54 84.391 28.8067 84.391 29.06C84.4044 29.3133 84.411 29.5267 84.411 29.7V31.62C84.411 32.0067 84.4844 32.2933 84.631 32.48C84.791 32.68 84.991 32.8067 85.231 32.86C85.4844 32.9267 85.7577 32.96 86.051 32.96H86.111V33.8H80.731ZM87.151 27.92C87.7377 27.92 88.211 27.7533 88.571 27.42C88.931 27.0867 89.191 26.6 89.351 25.96C89.5244 25.32 89.611 24.5333 89.611 23.6C89.611 22.6533 89.5244 21.8667 89.351 21.24C89.191 20.6133 88.931 20.1467 88.571 19.84C88.211 19.52 87.731 19.36 87.131 19.36C86.4377 19.36 85.891 19.5133 85.491 19.82C85.1044 20.1267 84.8244 20.6 84.651 21.24C84.491 21.8667 84.411 22.66 84.411 23.62C84.411 24.54 84.491 25.32 84.651 25.96C84.8244 26.6 85.111 27.0867 85.511 27.42C85.911 27.7533 86.4577 27.92 87.151 27.92ZM93.3162 29V28.16H93.3762C93.6829 28.16 93.9562 28.1267 94.1962 28.06C94.4495 27.9933 94.6495 27.86 94.7962 27.66C94.9429 27.4467 95.0162 27.1333 95.0162 26.72V20.48C95.0162 20.08 94.9362 19.7867 94.7762 19.6C94.6295 19.4 94.4295 19.2733 94.1762 19.22C93.9362 19.1533 93.6695 19.12 93.3762 19.12H93.3162V18.28H96.3962L96.7762 20.26H96.8762C97.0495 19.86 97.2362 19.4933 97.4362 19.16C97.6362 18.8267 97.9029 18.5667 98.2362 18.38C98.5695 18.18 99.0295 18.08 99.6162 18.08C100.35 18.08 100.89 18.2067 101.236 18.46C101.596 18.7133 101.776 19.0733 101.776 19.54C101.776 19.9533 101.63 20.2933 101.336 20.56C101.056 20.8267 100.583 20.96 99.9162 20.96C99.9162 20.5867 99.8829 20.2867 99.8162 20.06C99.7495 19.8333 99.6362 19.6667 99.4762 19.56C99.3295 19.4533 99.1229 19.4 98.8562 19.4C98.4829 19.4 98.1695 19.5467 97.9162 19.84C97.6629 20.1333 97.4629 20.5067 97.3162 20.96C97.1695 21.4133 97.0629 21.8867 96.9962 22.38C96.9295 22.86 96.8962 23.2933 96.8962 23.68V26.82C96.8962 27.2067 96.9695 27.5 97.1162 27.7C97.2762 27.8867 97.4762 28.0133 97.7162 28.08C97.9695 28.1333 98.2429 28.16 98.5362 28.16H99.0962V29H93.3162ZM105.78 29.2C105.193 29.2 104.66 29.0867 104.18 28.86C103.713 28.62 103.346 28.2667 103.08 27.8C102.813 27.32 102.68 26.72 102.68 26C102.68 24.9333 103.053 24.1467 103.8 23.64C104.56 23.1333 105.706 22.8533 107.24 22.8L108.9 22.74V21.54C108.9 21.06 108.86 20.64 108.78 20.28C108.7 19.9067 108.526 19.6133 108.26 19.4C107.993 19.1867 107.586 19.08 107.04 19.08C106.533 19.08 106.146 19.1733 105.88 19.36C105.613 19.5467 105.433 19.8067 105.34 20.14C105.26 20.46 105.22 20.8333 105.22 21.26C104.66 21.26 104.233 21.1667 103.94 20.98C103.66 20.78 103.52 20.4533 103.52 20C103.52 19.5333 103.68 19.16 104 18.88C104.333 18.6 104.773 18.4 105.32 18.28C105.866 18.1467 106.466 18.08 107.12 18.08C108.346 18.08 109.26 18.34 109.86 18.86C110.473 19.38 110.78 20.2733 110.78 21.54V26.72C110.78 27.0933 110.82 27.3867 110.9 27.6C110.98 27.8 111.113 27.9467 111.3 28.04C111.486 28.12 111.726 28.16 112.02 28.16H112.08V29H109.38L109.06 27.28H108.9C108.62 27.6533 108.346 27.9867 108.08 28.28C107.813 28.56 107.5 28.7867 107.14 28.96C106.793 29.12 106.34 29.2 105.78 29.2ZM106.24 27.96C106.786 27.96 107.253 27.8467 107.64 27.62C108.04 27.3933 108.346 27.0733 108.56 26.66C108.786 26.2333 108.9 25.74 108.9 25.18V23.56L107.62 23.62C106.86 23.6467 106.26 23.76 105.82 23.96C105.393 24.16 105.086 24.44 104.9 24.8C104.713 25.1467 104.62 25.58 104.62 26.1C104.62 26.5133 104.68 26.86 104.8 27.14C104.92 27.4067 105.1 27.6133 105.34 27.76C105.58 27.8933 105.88 27.96 106.24 27.96ZM113.609 29V28.16H113.669C113.976 28.16 114.249 28.1267 114.489 28.06C114.742 27.9933 114.942 27.86 115.089 27.66C115.236 27.4467 115.309 27.1333 115.309 26.72V20.48C115.309 20.08 115.229 19.7867 115.069 19.6C114.922 19.4 114.722 19.2733 114.469 19.22C114.229 19.1533 113.962 19.12 113.669 19.12H113.609V18.28H116.689L117.069 20.26H117.169C117.342 19.86 117.529 19.4933 117.729 19.16C117.929 18.8267 118.196 18.5667 118.529 18.38C118.862 18.18 119.322 18.08 119.909 18.08C120.642 18.08 121.182 18.2067 121.529 18.46C121.889 18.7133 122.069 19.0733 122.069 19.54C122.069 19.9533 121.922 20.2933 121.629 20.56C121.349 20.8267 120.876 20.96 120.209 20.96C120.209 20.5867 120.176 20.2867 120.109 20.06C120.042 19.8333 119.929 19.6667 119.769 19.56C119.622 19.4533 119.416 19.4 119.149 19.4C118.776 19.4 118.462 19.5467 118.209 19.84C117.956 20.1333 117.756 20.5067 117.609 20.96C117.462 21.4133 117.356 21.8867 117.289 22.38C117.222 22.86 117.189 23.2933 117.189 23.68V26.82C117.189 27.2067 117.262 27.5 117.409 27.7C117.569 27.8867 117.769 28.0133 118.009 28.08C118.262 28.1333 118.536 28.16 118.829 28.16H119.389V29H113.609Z" fill="white"/>
<defs>
<radialGradient id="paint0_radial_156_231" cx="0" cy="0" r="1" gradientUnits="userSpaceOnUse" gradientTransform="translate(80 21.5) rotate(180) scale(80 239.134)">
<stop offset="0.153846" stop-color="#A3002B" stop-opacity="0.86"/>
<stop offset="0.807692" stop-color="#3C0010"/>
</radialGradient>
</defs>
</svg>
