<svg width="320" height="63" viewBox="0 0 320 63" fill="none" xmlns="http://www.w3.org/2000/svg">
<rect width="320" height="62.0124" rx="8" fill="url(#paint0_radial_156_209)"/>
<path d="M28.0273 39.3789C28.431 37.888 28.877 36.3743 29.3652 34.8379C29.8535 33.3014 30.459 31.4655 31.1816 29.3301C31.9108 27.1882 32.4089 25.707 32.6758 24.8867C32.7539 24.7565 32.806 24.6784 32.832 24.6523H34.4727C34.8568 24.6523 35.4232 24.6458 36.1719 24.6328C36.9206 24.6198 37.487 24.6133 37.8711 24.6133H39.5117C39.6094 24.6133 39.6908 24.6165 39.7559 24.623C39.821 24.623 39.8991 24.6296 39.9902 24.6426C40.0814 24.6556 40.153 24.6751 40.2051 24.7012C40.2637 24.7272 40.3125 24.7663 40.3516 24.8184C40.3906 24.8704 40.4102 24.9323 40.4102 25.0039L44.9121 39.2715C44.9121 39.4017 44.8633 39.4896 44.7656 39.5352C44.6745 39.5872 44.4987 39.6133 44.2383 39.6133H43.3398C43.0794 39.6133 42.6921 39.6165 42.1777 39.623C41.6634 39.6296 41.276 39.6328 41.0156 39.6328C40.9375 39.6328 40.778 39.6361 40.5371 39.6426C40.3027 39.6556 40.1042 39.6589 39.9414 39.6523C39.7786 39.6523 39.5964 39.6426 39.3945 39.623C39.1992 39.61 39.0397 39.5742 38.916 39.5156C38.7988 39.4635 38.724 39.3919 38.6914 39.3008V38.6562C38.6263 38.3307 38.5124 38.0312 38.3496 37.7578C38.1868 37.4844 38.0143 37.3477 37.832 37.3477H34.4727L33.9648 39.418C33.8932 39.5742 33.5286 39.6523 32.8711 39.6523H32.0898C31.8099 39.6523 31.3932 39.6621 30.8398 39.6816C30.2865 39.7012 29.8698 39.7109 29.5898 39.7109H29.3164C29.2122 39.7109 29.0462 39.7142 28.8184 39.7207C28.597 39.7272 28.4245 39.7305 28.3008 39.7305C28.2487 39.6784 28.1576 39.5612 28.0273 39.3789ZM34.8047 33.4512L35.0781 33.9102H35.7227C36.2435 33.9102 36.7188 33.8809 37.1484 33.8223C37.5846 33.7572 37.8027 33.6562 37.8027 33.5195L36.543 27.8945C36.4258 27.8945 36.2663 28.1159 36.0645 28.5586C35.8691 29.0013 35.7096 29.5026 35.5859 30.0625L34.8047 33.4512ZM50.7617 25.8242C51.6536 25.8242 52.4544 25.8828 53.1641 26C53.8802 26.1172 54.5638 26.3255 55.2148 26.625C55.8724 26.9245 56.4193 27.3151 56.8555 27.7969C57.2917 28.2786 57.6367 28.9036 57.8906 29.6719C58.151 30.4401 58.2812 31.332 58.2812 32.3477C58.2812 33.0898 58.1934 33.7832 58.0176 34.4277C57.8418 35.0658 57.6009 35.6159 57.2949 36.0781C56.9889 36.5404 56.6374 36.9538 56.2402 37.3184C55.8496 37.6764 55.4232 37.9694 54.9609 38.1973C54.4987 38.4251 54.0365 38.6009 53.5742 38.7246C53.112 38.8483 52.6497 38.9232 52.1875 38.9492H45.4883V25.9805C45.5078 25.9805 45.5436 25.9837 45.5957 25.9902C45.6478 25.9967 45.6836 26 45.7031 26C45.9831 26 46.4062 25.9707 46.9727 25.9121C47.5456 25.8535 47.9753 25.8242 48.2617 25.8242H50.7617ZM50.8789 35.9023C51.2109 35.9023 51.5039 35.8503 51.7578 35.7461C52.0117 35.6354 52.2135 35.4792 52.3633 35.2773C52.5195 35.0755 52.6465 34.8639 52.7441 34.6426C52.8483 34.4212 52.9232 34.1608 52.9688 33.8613C53.0143 33.5618 53.0436 33.3014 53.0566 33.0801C53.0762 32.8522 53.0859 32.5951 53.0859 32.3086V31.6055C53.0794 31.5599 53.0599 31.3385 53.0273 30.9414C52.9948 30.5443 52.9232 30.2057 52.8125 29.9258C52.7083 29.724 52.5911 29.5514 52.4609 29.4082C52.3372 29.2585 52.2135 29.1445 52.0898 29.0664C51.9661 28.9818 51.8197 28.9199 51.6504 28.8809C51.4876 28.8353 51.3379 28.806 51.2012 28.793C51.0645 28.7799 50.8984 28.7734 50.7031 28.7734V28.9883H50.4102V35.9023H50.8789ZM59.4141 39.0078V26.1758C59.4206 26.1237 59.4727 26.0781 59.5703 26.0391C59.668 25.9935 59.7266 25.9609 59.7461 25.9414H65V38.6562C64.9674 38.793 64.9349 38.8874 64.9023 38.9395C64.8763 38.985 64.8307 39.0078 64.7656 39.0078H59.4141ZM73.0859 39.3008C71.9987 39.3008 71.0221 39.1185 70.1562 38.7539C69.2904 38.3828 68.5807 37.8717 68.0273 37.2207C67.474 36.5697 67.0508 35.8112 66.7578 34.9453C66.4714 34.0729 66.3281 33.1224 66.3281 32.0938V31.957C66.3346 31.9115 66.3444 31.8008 66.3574 31.625C66.377 31.4427 66.3867 31.3255 66.3867 31.2734C66.3932 31.2148 66.4062 31.1074 66.4258 30.9512C66.4453 30.7949 66.4616 30.681 66.4746 30.6094C66.4876 30.5378 66.5039 30.4336 66.5234 30.2969C66.5495 30.1602 66.5755 30.0495 66.6016 29.9648C66.6341 29.8737 66.6699 29.7663 66.709 29.6426C66.748 29.5189 66.7904 29.4017 66.8359 29.291C66.8815 29.1803 66.9336 29.0664 66.9922 28.9492V28.9688C67.2917 28.3438 67.6693 27.8034 68.125 27.3477C68.5807 26.8919 69.082 26.5404 69.6289 26.293C70.1758 26.0391 70.7357 25.8568 71.3086 25.7461C71.8815 25.6289 72.487 25.5703 73.125 25.5703C73.9323 25.5703 74.6615 25.6517 75.3125 25.8145C75.9635 25.9707 76.5039 26.1823 76.9336 26.4492C77.3633 26.7161 77.7311 27.0417 78.0371 27.4258C78.3431 27.8034 78.5742 28.194 78.7305 28.5977C78.8867 29.0013 78.9974 29.4375 79.0625 29.9062V30.7461C79.043 30.8372 78.9941 30.9089 78.916 30.9609C78.8379 31.0065 78.7533 31.0358 78.6621 31.0488C78.571 31.0553 78.444 31.0586 78.2812 31.0586H74.1016V30.2188C74.069 29.9974 73.9746 29.7956 73.8184 29.6133C73.6621 29.431 73.4701 29.3398 73.2422 29.3398C73.0404 29.3398 72.8613 29.3822 72.7051 29.4668C72.5553 29.5514 72.4349 29.6654 72.3438 29.8086C72.2591 29.9453 72.1875 30.1081 72.1289 30.2969C72.0768 30.4792 72.041 30.6745 72.0215 30.8828C72.0085 31.0846 71.9954 31.293 71.9824 31.5078C71.9759 31.7161 71.9792 31.9147 71.9922 32.1035C71.9922 32.2337 71.9922 32.3281 71.9922 32.3867V33.4805C71.9922 33.6432 71.9987 33.8027 72.0117 33.959C72.0312 34.1087 72.0703 34.304 72.1289 34.5449C72.194 34.7858 72.3047 34.9811 72.4609 35.1309C72.6172 35.2806 72.8125 35.3555 73.0469 35.3555C73.2943 35.3555 73.4766 35.2513 73.5938 35.043C73.7174 34.8346 73.8184 34.584 73.8965 34.291C73.9811 33.998 74.0755 33.7995 74.1797 33.6953C74.4401 33.6953 74.8307 33.6986 75.3516 33.7051C75.8724 33.7116 76.263 33.7148 76.5234 33.7148C76.7057 33.7148 76.9759 33.7116 77.334 33.7051C77.6921 33.6986 77.9622 33.6953 78.1445 33.6953H78.8672C79.082 33.6953 79.1992 33.8255 79.2188 34.0859V34.457C79.0755 35.7526 78.597 36.7975 77.7832 37.5918C76.9694 38.3861 75.9505 38.8906 74.7266 39.1055V39.1641C74.2904 39.2552 73.7435 39.3008 73.0859 39.3008ZM80.2539 39.0078V26.1758C80.2604 26.1237 80.3125 26.0781 80.4102 26.0391C80.5078 25.9935 80.5664 25.9609 80.5859 25.9414H85.8398V38.6562C85.8073 38.793 85.7747 38.8874 85.7422 38.9395C85.7161 38.985 85.6706 39.0078 85.6055 39.0078H80.2539ZM87.0117 32.3086L86.9922 32.0938C87.1159 31.0326 87.2331 30.2936 87.3438 29.877C87.5977 28.9004 88.0534 28.0833 88.7109 27.4258L88.9453 27.1914C89.2578 26.8268 89.7331 26.5143 90.3711 26.2539H90.7422C91.3802 25.987 92.4284 25.7396 93.8867 25.5117C94.2513 25.5117 94.6322 25.541 95.0293 25.5996C95.4329 25.6517 95.8789 25.7428 96.3672 25.873C96.8555 25.9967 97.3242 26.1986 97.7734 26.4785C98.2292 26.752 98.6068 27.0807 98.9062 27.4648V27.7383C99.974 29.0729 100.508 30.5703 100.508 32.2305C100.508 34.099 100.078 35.6224 99.2188 36.8008L98.8281 37.2891C98.5286 37.6602 98.1543 37.9792 97.7051 38.2461C97.2624 38.513 96.7904 38.7181 96.2891 38.8613C95.7878 38.998 95.306 39.0957 94.8438 39.1543C94.388 39.2129 93.9323 39.2422 93.4766 39.2422C92.806 39.2422 92.1647 39.1641 91.5527 39.0078C90.9473 38.8451 90.3776 38.5944 89.8438 38.2559C89.3164 37.9173 88.8509 37.5007 88.4473 37.0059C88.0436 36.5111 87.7148 35.9154 87.4609 35.2188C87.2135 34.5156 87.0638 33.7409 87.0117 32.8945V32.3086ZM92.3828 32.3867C92.3828 34.6784 92.819 35.8242 93.6914 35.8242C93.9323 35.8242 94.1406 35.7786 94.3164 35.6875C94.4987 35.5964 94.6452 35.4564 94.7559 35.2676C94.8665 35.0788 94.9577 34.8867 95.0293 34.6914C95.1009 34.4961 95.1497 34.252 95.1758 33.959C95.2083 33.666 95.2279 33.4089 95.2344 33.1875C95.2474 32.9661 95.2539 32.6992 95.2539 32.3867V32.0352C95.2539 31.6966 95.2344 31.3711 95.1953 31.0586C95.1562 30.7461 95.0879 30.4336 94.9902 30.1211C94.8991 29.8021 94.7559 29.5482 94.5605 29.3594C94.3652 29.1641 94.1276 29.0664 93.8477 29.0664C92.8711 29.0664 92.3828 30.0299 92.3828 31.957V32.3867ZM114.844 25.9414C114.922 25.9674 114.98 26.0814 115.02 26.2832C115.065 26.4785 115.091 26.7259 115.098 27.0254C115.104 27.3249 115.104 27.6113 115.098 27.8848C115.091 28.1582 115.081 28.4382 115.068 28.7246C115.062 29.0111 115.059 29.1901 115.059 29.2617C115.046 29.5221 115.039 29.8867 115.039 30.3555V31.3906C115.039 31.8464 115.046 32.4714 115.059 33.2656C115.072 34.0599 115.078 34.6458 115.078 35.0234V38.5781C115.052 38.7995 114.87 38.9102 114.531 38.9102H109.062C108.945 38.8841 108.796 38.6107 108.613 38.0898C108.49 37.7448 108.281 37.1784 107.988 36.3906C107.702 35.6029 107.454 34.9128 107.246 34.3203C107.038 33.7214 106.849 33.1419 106.68 32.582V32.5234V32.582C106.66 33.0117 106.641 33.653 106.621 34.5059C106.602 35.3522 106.582 35.987 106.562 36.4102V38.4023C106.562 38.5977 106.54 38.7344 106.494 38.8125C106.449 38.8841 106.328 38.9427 106.133 38.9883H102.109L101.68 38.5586C101.712 37.4779 101.738 35.7852 101.758 33.4805C101.777 31.1758 101.803 29.4701 101.836 28.3633V26.2539C101.901 26.0195 101.979 25.9023 102.07 25.9023V25.9414C102.513 25.9414 103.206 25.9284 104.15 25.9023C105.101 25.8763 105.814 25.8633 106.289 25.8633H107.93C107.936 25.8633 107.946 25.8665 107.959 25.873C108.076 25.9186 108.141 25.9707 108.154 26.0293L108.164 26.0977C108.398 26.7292 108.636 27.3835 108.877 28.0605C109.118 28.7376 109.404 29.5579 109.736 30.5215C110.068 31.4785 110.299 32.1393 110.43 32.5039V31.0586C110.56 28.7669 110.625 27.1393 110.625 26.1758C110.625 26.0716 110.697 26.0065 110.84 25.9805C110.983 25.9544 111.204 25.9414 111.504 25.9414H114.844ZM121.523 36.957C121.478 37.1068 121.432 37.3053 121.387 37.5527C121.348 37.7936 121.309 37.9857 121.27 38.1289C121.237 38.2656 121.178 38.4121 121.094 38.5684C121.009 38.7181 120.879 38.8288 120.703 38.9004C120.534 38.972 120.312 39.0078 120.039 39.0078H115.82V38.6758C116.165 37.6406 116.667 36.0521 117.324 33.9102C117.988 31.7682 118.503 30.1471 118.867 29.0469V29.0664C119.089 28.4349 119.414 27.4453 119.844 26.0977C119.85 26.0846 119.86 26.0684 119.873 26.0488C119.932 25.9512 119.987 25.8763 120.039 25.8242L125.312 25.8633C126.211 25.8633 126.706 25.9414 126.797 26.0977V26.3516C126.81 26.4102 126.882 26.5599 127.012 26.8008C127.643 28.7344 128.105 30.1406 128.398 31.0195V31.1367C128.424 31.3255 128.483 31.5404 128.574 31.7812C128.665 32.0221 128.773 32.2826 128.896 32.5625C129.027 32.8359 129.118 33.0508 129.17 33.207L129.561 34.6133C129.788 35.3685 130.124 36.3776 130.566 37.6406V37.6211V37.8164C130.586 37.9076 130.635 38.0312 130.713 38.1875C130.791 38.3438 130.84 38.4544 130.859 38.5195C130.859 38.7018 130.82 38.819 130.742 38.8711C130.671 38.9232 130.527 38.9492 130.312 38.9492H125.781C125.671 38.9362 125.599 38.9264 125.566 38.9199C125.534 38.9134 125.482 38.9004 125.41 38.8809C125.345 38.8613 125.296 38.8353 125.264 38.8027C125.238 38.7702 125.221 38.7279 125.215 38.6758L124.844 37.1914C124.818 37.0677 124.792 36.9993 124.766 36.9863C124.74 36.9668 124.661 36.957 124.531 36.957H121.523ZM121.992 33.4805V33.5195V33.4805ZM124.141 32.3086C124.102 32.1263 124.043 31.8333 123.965 31.4297C123.893 31.0195 123.822 30.6647 123.75 30.3652C123.678 30.0592 123.6 29.776 123.516 29.5156V29.0469C123.464 28.9102 123.372 28.8125 123.242 28.7539V28.7734C123.086 28.806 122.93 29.2422 122.773 30.082V30.5508C122.76 30.5964 122.731 30.6387 122.686 30.6777C122.64 30.7168 122.617 30.7396 122.617 30.7461C122.402 31.6966 122.227 32.4648 122.09 33.0508C122.09 33.1159 122.074 33.2298 122.041 33.3926C122.008 33.5553 121.992 33.6497 121.992 33.6758H124.414C124.414 33.5065 124.355 33.2005 124.238 32.7578V32.543C124.232 32.5234 124.212 32.4876 124.18 32.4355C124.154 32.377 124.141 32.3346 124.141 32.3086ZM131.504 25.9414H133.32C133.88 25.9414 134.775 25.9284 136.006 25.9023C137.236 25.8763 138.158 25.8633 138.77 25.8633C139.297 25.8633 139.788 25.8926 140.244 25.9512C140.706 26.0098 141.159 26.1172 141.602 26.2734C142.051 26.4297 142.432 26.6283 142.744 26.8691C143.063 27.11 143.32 27.429 143.516 27.8262C143.711 28.2168 143.809 28.6693 143.809 29.1836C143.809 29.8932 143.643 30.4987 143.311 31C142.979 31.5013 142.467 31.9245 141.777 32.2695C142.051 32.3867 142.288 32.5397 142.49 32.7285C142.692 32.9173 142.845 33.0801 142.949 33.2168C143.06 33.3535 143.164 33.5846 143.262 33.9102C143.366 34.2292 143.428 34.4408 143.447 34.5449C143.467 34.6426 143.509 34.89 143.574 35.2871C143.594 35.3783 143.607 35.4466 143.613 35.4922C143.639 35.7526 143.75 36.2311 143.945 36.9277C144.141 37.6178 144.238 38.1484 144.238 38.5195C144.238 38.7539 144.167 38.8711 144.023 38.8711C143.633 38.8711 143.04 38.8743 142.246 38.8809C141.458 38.8874 140.872 38.8906 140.488 38.8906C140.332 38.8776 140.098 38.8711 139.785 38.8711H139.121C138.991 38.832 138.864 38.6302 138.74 38.2656C138.617 37.901 138.529 37.4909 138.477 37.0352L138.262 35.2969C138.223 35.1536 138.19 35.0527 138.164 34.9941C138.145 34.929 138.105 34.8542 138.047 34.7695C137.988 34.6784 137.907 34.6165 137.803 34.584C137.705 34.5514 137.578 34.5352 137.422 34.5352H136.973V38.4414C136.973 38.4609 136.973 38.4935 136.973 38.5391C136.973 38.5781 136.973 38.6074 136.973 38.627C136.973 38.64 136.973 38.6628 136.973 38.6953C136.973 38.7279 136.969 38.7539 136.963 38.7734C136.956 38.7865 136.95 38.806 136.943 38.832C136.937 38.8581 136.927 38.8776 136.914 38.8906C136.908 38.8971 136.895 38.9102 136.875 38.9297C136.862 38.9427 136.842 38.9525 136.816 38.959C136.797 38.9655 136.771 38.972 136.738 38.9785C136.712 38.985 136.68 38.9883 136.641 38.9883H131.504V25.9414ZM137.031 31.0977C137.044 31.1107 137.064 31.14 137.09 31.1855C137.116 31.2246 137.142 31.2572 137.168 31.2832C137.194 31.3092 137.22 31.3255 137.246 31.332C137.441 31.332 137.637 31.3125 137.832 31.2734C138.027 31.2279 138.226 31.1562 138.428 31.0586C138.636 30.9609 138.802 30.8112 138.926 30.6094C139.056 30.4076 139.121 30.1667 139.121 29.8867C139.121 29.2096 138.47 28.8711 137.168 28.8711C137.038 28.9036 136.973 28.9557 136.973 29.0273V29.3984C136.973 29.5872 136.982 29.8704 137.002 30.248C137.021 30.6257 137.031 30.9089 137.031 31.0977ZM155.703 36.957C155.658 37.1068 155.612 37.3053 155.566 37.5527C155.527 37.7936 155.488 37.9857 155.449 38.1289C155.417 38.2656 155.358 38.4121 155.273 38.5684C155.189 38.7181 155.059 38.8288 154.883 38.9004C154.714 38.972 154.492 39.0078 154.219 39.0078H150V38.6758C150.345 37.6406 150.846 36.0521 151.504 33.9102C152.168 31.7682 152.682 30.1471 153.047 29.0469V29.0664C153.268 28.4349 153.594 27.4453 154.023 26.0977C154.03 26.0846 154.04 26.0684 154.053 26.0488C154.111 25.9512 154.167 25.8763 154.219 25.8242L159.492 25.8633C160.391 25.8633 160.885 25.9414 160.977 26.0977V26.3516C160.99 26.4102 161.061 26.5599 161.191 26.8008C161.823 28.7344 162.285 30.1406 162.578 31.0195V31.1367C162.604 31.3255 162.663 31.5404 162.754 31.7812C162.845 32.0221 162.952 32.2826 163.076 32.5625C163.206 32.8359 163.298 33.0508 163.35 33.207L163.74 34.6133C163.968 35.3685 164.303 36.3776 164.746 37.6406V37.6211V37.8164C164.766 37.9076 164.814 38.0312 164.893 38.1875C164.971 38.3438 165.02 38.4544 165.039 38.5195C165.039 38.7018 165 38.819 164.922 38.8711C164.85 38.9232 164.707 38.9492 164.492 38.9492H159.961C159.85 38.9362 159.779 38.9264 159.746 38.9199C159.714 38.9134 159.661 38.9004 159.59 38.8809C159.525 38.8613 159.476 38.8353 159.443 38.8027C159.417 38.7702 159.401 38.7279 159.395 38.6758L159.023 37.1914C158.997 37.0677 158.971 36.9993 158.945 36.9863C158.919 36.9668 158.841 36.957 158.711 36.957H155.703ZM156.172 33.4805V33.5195V33.4805ZM158.32 32.3086C158.281 32.1263 158.223 31.8333 158.145 31.4297C158.073 31.0195 158.001 30.6647 157.93 30.3652C157.858 30.0592 157.78 29.776 157.695 29.5156V29.0469C157.643 28.9102 157.552 28.8125 157.422 28.7539V28.7734C157.266 28.806 157.109 29.2422 156.953 30.082V30.5508C156.94 30.5964 156.911 30.6387 156.865 30.6777C156.82 30.7168 156.797 30.7396 156.797 30.7461C156.582 31.6966 156.406 32.4648 156.27 33.0508C156.27 33.1159 156.253 33.2298 156.221 33.3926C156.188 33.5553 156.172 33.6497 156.172 33.6758H158.594C158.594 33.5065 158.535 33.2005 158.418 32.7578V32.543C158.411 32.5234 158.392 32.4876 158.359 32.4355C158.333 32.377 158.32 32.3346 158.32 32.3086ZM164.98 32.3086L164.961 32.0938C165.085 31.0326 165.202 30.2936 165.312 29.877C165.566 28.9004 166.022 28.0833 166.68 27.4258L166.914 27.1914C167.227 26.8268 167.702 26.5143 168.34 26.2539H168.711C169.349 25.987 170.397 25.7396 171.855 25.5117C172.22 25.5117 172.601 25.541 172.998 25.5996C173.402 25.6517 173.848 25.7428 174.336 25.873C174.824 25.9967 175.293 26.1986 175.742 26.4785C176.198 26.752 176.576 27.0807 176.875 27.4648V27.7383C177.943 29.0729 178.477 30.5703 178.477 32.2305C178.477 34.099 178.047 35.6224 177.188 36.8008L176.797 37.2891C176.497 37.6602 176.123 37.9792 175.674 38.2461C175.231 38.513 174.759 38.7181 174.258 38.8613C173.757 38.998 173.275 39.0957 172.812 39.1543C172.357 39.2129 171.901 39.2422 171.445 39.2422C170.775 39.2422 170.133 39.1641 169.521 39.0078C168.916 38.8451 168.346 38.5944 167.812 38.2559C167.285 37.9173 166.82 37.5007 166.416 37.0059C166.012 36.5111 165.684 35.9154 165.43 35.2188C165.182 34.5156 165.033 33.7409 164.98 32.8945V32.3086ZM170.352 32.3867C170.352 34.6784 170.788 35.8242 171.66 35.8242C171.901 35.8242 172.109 35.7786 172.285 35.6875C172.467 35.5964 172.614 35.4564 172.725 35.2676C172.835 35.0788 172.926 34.8867 172.998 34.6914C173.07 34.4961 173.118 34.252 173.145 33.959C173.177 33.666 173.197 33.4089 173.203 33.1875C173.216 32.9661 173.223 32.6992 173.223 32.3867V32.0352C173.223 31.6966 173.203 31.3711 173.164 31.0586C173.125 30.7461 173.057 30.4336 172.959 30.1211C172.868 29.8021 172.725 29.5482 172.529 29.3594C172.334 29.1641 172.096 29.0664 171.816 29.0664C170.84 29.0664 170.352 30.0299 170.352 31.957V32.3867ZM192.109 39.3008C191.022 39.3008 190.046 39.1185 189.18 38.7539C188.314 38.3828 187.604 37.8717 187.051 37.2207C186.497 36.5697 186.074 35.8112 185.781 34.9453C185.495 34.0729 185.352 33.1224 185.352 32.0938V31.957C185.358 31.9115 185.368 31.8008 185.381 31.625C185.4 31.4427 185.41 31.3255 185.41 31.2734C185.417 31.2148 185.43 31.1074 185.449 30.9512C185.469 30.7949 185.485 30.681 185.498 30.6094C185.511 30.5378 185.527 30.4336 185.547 30.2969C185.573 30.1602 185.599 30.0495 185.625 29.9648C185.658 29.8737 185.693 29.7663 185.732 29.6426C185.771 29.5189 185.814 29.4017 185.859 29.291C185.905 29.1803 185.957 29.0664 186.016 28.9492V28.9688C186.315 28.3438 186.693 27.8034 187.148 27.3477C187.604 26.8919 188.105 26.5404 188.652 26.293C189.199 26.0391 189.759 25.8568 190.332 25.7461C190.905 25.6289 191.51 25.5703 192.148 25.5703C192.956 25.5703 193.685 25.6517 194.336 25.8145C194.987 25.9707 195.527 26.1823 195.957 26.4492C196.387 26.7161 196.755 27.0417 197.061 27.4258C197.367 27.8034 197.598 28.194 197.754 28.5977C197.91 29.0013 198.021 29.4375 198.086 29.9062V30.7461C198.066 30.8372 198.018 30.9089 197.939 30.9609C197.861 31.0065 197.777 31.0358 197.686 31.0488C197.594 31.0553 197.467 31.0586 197.305 31.0586H193.125V30.2188C193.092 29.9974 192.998 29.7956 192.842 29.6133C192.686 29.431 192.493 29.3398 192.266 29.3398C192.064 29.3398 191.885 29.3822 191.729 29.4668C191.579 29.5514 191.458 29.6654 191.367 29.8086C191.283 29.9453 191.211 30.1081 191.152 30.2969C191.1 30.4792 191.064 30.6745 191.045 30.8828C191.032 31.0846 191.019 31.293 191.006 31.5078C190.999 31.7161 191.003 31.9147 191.016 32.1035C191.016 32.2337 191.016 32.3281 191.016 32.3867V33.4805C191.016 33.6432 191.022 33.8027 191.035 33.959C191.055 34.1087 191.094 34.304 191.152 34.5449C191.217 34.7858 191.328 34.9811 191.484 35.1309C191.641 35.2806 191.836 35.3555 192.07 35.3555C192.318 35.3555 192.5 35.2513 192.617 35.043C192.741 34.8346 192.842 34.584 192.92 34.291C193.005 33.998 193.099 33.7995 193.203 33.6953C193.464 33.6953 193.854 33.6986 194.375 33.7051C194.896 33.7116 195.286 33.7148 195.547 33.7148C195.729 33.7148 195.999 33.7116 196.357 33.7051C196.715 33.6986 196.986 33.6953 197.168 33.6953H197.891C198.105 33.6953 198.223 33.8255 198.242 34.0859V34.457C198.099 35.7526 197.62 36.7975 196.807 37.5918C195.993 38.3861 194.974 38.8906 193.75 39.1055V39.1641C193.314 39.2552 192.767 39.3008 192.109 39.3008ZM203.965 36.957C203.919 37.1068 203.874 37.3053 203.828 37.5527C203.789 37.7936 203.75 37.9857 203.711 38.1289C203.678 38.2656 203.62 38.4121 203.535 38.5684C203.451 38.7181 203.32 38.8288 203.145 38.9004C202.975 38.972 202.754 39.0078 202.48 39.0078H198.262V38.6758C198.607 37.6406 199.108 36.0521 199.766 33.9102C200.43 31.7682 200.944 30.1471 201.309 29.0469V29.0664C201.53 28.4349 201.855 27.4453 202.285 26.0977C202.292 26.0846 202.301 26.0684 202.314 26.0488C202.373 25.9512 202.428 25.8763 202.48 25.8242L207.754 25.8633C208.652 25.8633 209.147 25.9414 209.238 26.0977V26.3516C209.251 26.4102 209.323 26.5599 209.453 26.8008C210.085 28.7344 210.547 30.1406 210.84 31.0195V31.1367C210.866 31.3255 210.924 31.5404 211.016 31.7812C211.107 32.0221 211.214 32.2826 211.338 32.5625C211.468 32.8359 211.559 33.0508 211.611 33.207L212.002 34.6133C212.23 35.3685 212.565 36.3776 213.008 37.6406V37.6211V37.8164C213.027 37.9076 213.076 38.0312 213.154 38.1875C213.232 38.3438 213.281 38.4544 213.301 38.5195C213.301 38.7018 213.262 38.819 213.184 38.8711C213.112 38.9232 212.969 38.9492 212.754 38.9492H208.223C208.112 38.9362 208.04 38.9264 208.008 38.9199C207.975 38.9134 207.923 38.9004 207.852 38.8809C207.786 38.8613 207.738 38.8353 207.705 38.8027C207.679 38.7702 207.663 38.7279 207.656 38.6758L207.285 37.1914C207.259 37.0677 207.233 36.9993 207.207 36.9863C207.181 36.9668 207.103 36.957 206.973 36.957H203.965ZM204.434 33.4805V33.5195V33.4805ZM206.582 32.3086C206.543 32.1263 206.484 31.8333 206.406 31.4297C206.335 31.0195 206.263 30.6647 206.191 30.3652C206.12 30.0592 206.042 29.776 205.957 29.5156V29.0469C205.905 28.9102 205.814 28.8125 205.684 28.7539V28.7734C205.527 28.806 205.371 29.2422 205.215 30.082V30.5508C205.202 30.5964 205.173 30.6387 205.127 30.6777C205.081 30.7168 205.059 30.7396 205.059 30.7461C204.844 31.6966 204.668 32.4648 204.531 33.0508C204.531 33.1159 204.515 33.2298 204.482 33.3926C204.45 33.5553 204.434 33.6497 204.434 33.6758H206.855C206.855 33.5065 206.797 33.2005 206.68 32.7578V32.543C206.673 32.5234 206.654 32.4876 206.621 32.4355C206.595 32.377 206.582 32.3346 206.582 32.3086ZM213.945 25.9414H215.762C216.322 25.9414 217.217 25.9284 218.447 25.9023C219.678 25.8763 220.599 25.8633 221.211 25.8633C221.738 25.8633 222.23 25.8926 222.686 25.9512C223.148 26.0098 223.6 26.1172 224.043 26.2734C224.492 26.4297 224.873 26.6283 225.186 26.8691C225.505 27.11 225.762 27.429 225.957 27.8262C226.152 28.2168 226.25 28.6693 226.25 29.1836C226.25 29.8932 226.084 30.4987 225.752 31C225.42 31.5013 224.909 31.9245 224.219 32.2695C224.492 32.3867 224.73 32.5397 224.932 32.7285C225.133 32.9173 225.286 33.0801 225.391 33.2168C225.501 33.3535 225.605 33.5846 225.703 33.9102C225.807 34.2292 225.869 34.4408 225.889 34.5449C225.908 34.6426 225.951 34.89 226.016 35.2871C226.035 35.3783 226.048 35.4466 226.055 35.4922C226.081 35.7526 226.191 36.2311 226.387 36.9277C226.582 37.6178 226.68 38.1484 226.68 38.5195C226.68 38.7539 226.608 38.8711 226.465 38.8711C226.074 38.8711 225.482 38.8743 224.688 38.8809C223.9 38.8874 223.314 38.8906 222.93 38.8906C222.773 38.8776 222.539 38.8711 222.227 38.8711H221.562C221.432 38.832 221.305 38.6302 221.182 38.2656C221.058 37.901 220.97 37.4909 220.918 37.0352L220.703 35.2969C220.664 35.1536 220.632 35.0527 220.605 34.9941C220.586 34.929 220.547 34.8542 220.488 34.7695C220.43 34.6784 220.348 34.6165 220.244 34.584C220.146 34.5514 220.02 34.5352 219.863 34.5352H219.414V38.4414C219.414 38.4609 219.414 38.4935 219.414 38.5391C219.414 38.5781 219.414 38.6074 219.414 38.627C219.414 38.64 219.414 38.6628 219.414 38.6953C219.414 38.7279 219.411 38.7539 219.404 38.7734C219.398 38.7865 219.391 38.806 219.385 38.832C219.378 38.8581 219.368 38.8776 219.355 38.8906C219.349 38.8971 219.336 38.9102 219.316 38.9297C219.303 38.9427 219.284 38.9525 219.258 38.959C219.238 38.9655 219.212 38.972 219.18 38.9785C219.154 38.985 219.121 38.9883 219.082 38.9883H213.945V25.9414ZM219.473 31.0977C219.486 31.1107 219.505 31.14 219.531 31.1855C219.557 31.2246 219.583 31.2572 219.609 31.2832C219.635 31.3092 219.661 31.3255 219.688 31.332C219.883 31.332 220.078 31.3125 220.273 31.2734C220.469 31.2279 220.667 31.1562 220.869 31.0586C221.077 30.9609 221.243 30.8112 221.367 30.6094C221.497 30.4076 221.562 30.1667 221.562 29.8867C221.562 29.2096 220.911 28.8711 219.609 28.8711C219.479 28.9036 219.414 28.9557 219.414 29.0273V29.3984C219.414 29.5872 219.424 29.8704 219.443 30.248C219.463 30.6257 219.473 30.9089 219.473 31.0977ZM227.637 25.9414H229.453C230.013 25.9414 230.908 25.9284 232.139 25.9023C233.369 25.8763 234.29 25.8633 234.902 25.8633C235.43 25.8633 235.921 25.8926 236.377 25.9512C236.839 26.0098 237.292 26.1172 237.734 26.2734C238.184 26.4297 238.564 26.6283 238.877 26.8691C239.196 27.11 239.453 27.429 239.648 27.8262C239.844 28.2168 239.941 28.6693 239.941 29.1836C239.941 29.8932 239.775 30.4987 239.443 31C239.111 31.5013 238.6 31.9245 237.91 32.2695C238.184 32.3867 238.421 32.5397 238.623 32.7285C238.825 32.9173 238.978 33.0801 239.082 33.2168C239.193 33.3535 239.297 33.5846 239.395 33.9102C239.499 34.2292 239.561 34.4408 239.58 34.5449C239.6 34.6426 239.642 34.89 239.707 35.2871C239.727 35.3783 239.74 35.4466 239.746 35.4922C239.772 35.7526 239.883 36.2311 240.078 36.9277C240.273 37.6178 240.371 38.1484 240.371 38.5195C240.371 38.7539 240.299 38.8711 240.156 38.8711C239.766 38.8711 239.173 38.8743 238.379 38.8809C237.591 38.8874 237.005 38.8906 236.621 38.8906C236.465 38.8776 236.23 38.8711 235.918 38.8711H235.254C235.124 38.832 234.997 38.6302 234.873 38.2656C234.749 37.901 234.661 37.4909 234.609 37.0352L234.395 35.2969C234.355 35.1536 234.323 35.0527 234.297 34.9941C234.277 34.929 234.238 34.8542 234.18 34.7695C234.121 34.6784 234.04 34.6165 233.936 34.584C233.838 34.5514 233.711 34.5352 233.555 34.5352H233.105V38.4414C233.105 38.4609 233.105 38.4935 233.105 38.5391C233.105 38.5781 233.105 38.6074 233.105 38.627C233.105 38.64 233.105 38.6628 233.105 38.6953C233.105 38.7279 233.102 38.7539 233.096 38.7734C233.089 38.7865 233.083 38.806 233.076 38.832C233.07 38.8581 233.06 38.8776 233.047 38.8906C233.04 38.8971 233.027 38.9102 233.008 38.9297C232.995 38.9427 232.975 38.9525 232.949 38.959C232.93 38.9655 232.904 38.972 232.871 38.9785C232.845 38.985 232.812 38.9883 232.773 38.9883H227.637V25.9414ZM233.164 31.0977C233.177 31.1107 233.197 31.14 233.223 31.1855C233.249 31.2246 233.275 31.2572 233.301 31.2832C233.327 31.3092 233.353 31.3255 233.379 31.332C233.574 31.332 233.77 31.3125 233.965 31.2734C234.16 31.2279 234.359 31.1562 234.561 31.0586C234.769 30.9609 234.935 30.8112 235.059 30.6094C235.189 30.4076 235.254 30.1667 235.254 29.8867C235.254 29.2096 234.603 28.8711 233.301 28.8711C233.171 28.9036 233.105 28.9557 233.105 29.0273V29.3984C233.105 29.5872 233.115 29.8704 233.135 30.248C233.154 30.6257 233.164 30.9089 233.164 31.0977ZM241.133 39.0078V26.1758C241.139 26.1237 241.191 26.0781 241.289 26.0391C241.387 25.9935 241.445 25.9609 241.465 25.9414H246.719V38.6562C246.686 38.793 246.654 38.8874 246.621 38.9395C246.595 38.985 246.549 39.0078 246.484 39.0078H241.133ZM261.523 25.9414C261.602 25.9674 261.66 26.0814 261.699 26.2832C261.745 26.4785 261.771 26.7259 261.777 27.0254C261.784 27.3249 261.784 27.6113 261.777 27.8848C261.771 28.1582 261.761 28.4382 261.748 28.7246C261.742 29.0111 261.738 29.1901 261.738 29.2617C261.725 29.5221 261.719 29.8867 261.719 30.3555V31.3906C261.719 31.8464 261.725 32.4714 261.738 33.2656C261.751 34.0599 261.758 34.6458 261.758 35.0234V38.5781C261.732 38.7995 261.549 38.9102 261.211 38.9102H255.742C255.625 38.8841 255.475 38.6107 255.293 38.0898C255.169 37.7448 254.961 37.1784 254.668 36.3906C254.382 35.6029 254.134 34.9128 253.926 34.3203C253.717 33.7214 253.529 33.1419 253.359 32.582V32.5234V32.582C253.34 33.0117 253.32 33.653 253.301 34.5059C253.281 35.3522 253.262 35.987 253.242 36.4102V38.4023C253.242 38.5977 253.219 38.7344 253.174 38.8125C253.128 38.8841 253.008 38.9427 252.812 38.9883H248.789L248.359 38.5586C248.392 37.4779 248.418 35.7852 248.438 33.4805C248.457 31.1758 248.483 29.4701 248.516 28.3633V26.2539C248.581 26.0195 248.659 25.9023 248.75 25.9023V25.9414C249.193 25.9414 249.886 25.9284 250.83 25.9023C251.781 25.8763 252.493 25.8633 252.969 25.8633H254.609C254.616 25.8633 254.626 25.8665 254.639 25.873C254.756 25.9186 254.821 25.9707 254.834 26.0293L254.844 26.0977C255.078 26.7292 255.316 27.3835 255.557 28.0605C255.798 28.7376 256.084 29.5579 256.416 30.5215C256.748 31.4785 256.979 32.1393 257.109 32.5039V31.0586C257.24 28.7669 257.305 27.1393 257.305 26.1758C257.305 26.0716 257.376 26.0065 257.52 25.9805C257.663 25.9544 257.884 25.9414 258.184 25.9414H261.523ZM276.289 26.3516V38.3633C276.289 38.5 276.283 38.6107 276.27 38.6953C276.263 38.7734 276.237 38.8483 276.191 38.9199C276.146 38.9915 276.081 39.0273 275.996 39.0273H271.016V38.8125C271.003 38.7995 270.951 38.7702 270.859 38.7246C270.775 38.679 270.723 38.6367 270.703 38.5977V34.6523C270.703 34.5091 270.69 34.4277 270.664 34.4082C270.645 34.3887 270.553 34.3789 270.391 34.3789H269.727C269.57 34.3789 269.388 34.3919 269.18 34.418V38.6367C269.154 38.7539 269.102 38.8288 269.023 38.8613C268.952 38.8939 268.841 38.9102 268.691 38.9102H268.242C267.936 38.9102 267.454 38.9167 266.797 38.9297C266.146 38.9427 265.651 38.9492 265.312 38.9492H264.023C263.743 38.9492 263.604 38.793 263.604 38.4805L263.662 26.1758C263.662 26.1432 263.672 26.1172 263.691 26.0977C263.711 26.0716 263.75 26.0391 263.809 26C263.867 25.9544 263.9 25.9284 263.906 25.9219H269.16V30.1211H270.859V25.8242H275.84C275.996 25.8242 276.11 25.86 276.182 25.9316C276.253 26.0033 276.289 26.1432 276.289 26.3516ZM277.5 32.3086L277.48 32.0938C277.604 31.0326 277.721 30.2936 277.832 29.877C278.086 28.9004 278.542 28.0833 279.199 27.4258L279.434 27.1914C279.746 26.8268 280.221 26.5143 280.859 26.2539H281.23C281.868 25.987 282.917 25.7396 284.375 25.5117C284.74 25.5117 285.12 25.541 285.518 25.5996C285.921 25.6517 286.367 25.7428 286.855 25.873C287.344 25.9967 287.812 26.1986 288.262 26.4785C288.717 26.752 289.095 27.0807 289.395 27.4648V27.7383C290.462 29.0729 290.996 30.5703 290.996 32.2305C290.996 34.099 290.566 35.6224 289.707 36.8008L289.316 37.2891C289.017 37.6602 288.643 37.9792 288.193 38.2461C287.751 38.513 287.279 38.7181 286.777 38.8613C286.276 38.998 285.794 39.0957 285.332 39.1543C284.876 39.2129 284.421 39.2422 283.965 39.2422C283.294 39.2422 282.653 39.1641 282.041 39.0078C281.436 38.8451 280.866 38.5944 280.332 38.2559C279.805 37.9173 279.339 37.5007 278.936 37.0059C278.532 36.5111 278.203 35.9154 277.949 35.2188C277.702 34.5156 277.552 33.7409 277.5 32.8945V32.3086ZM282.871 32.3867C282.871 34.6784 283.307 35.8242 284.18 35.8242C284.421 35.8242 284.629 35.7786 284.805 35.6875C284.987 35.5964 285.133 35.4564 285.244 35.2676C285.355 35.0788 285.446 34.8867 285.518 34.6914C285.589 34.4961 285.638 34.252 285.664 33.959C285.697 33.666 285.716 33.4089 285.723 33.1875C285.736 32.9661 285.742 32.6992 285.742 32.3867V32.0352C285.742 31.6966 285.723 31.3711 285.684 31.0586C285.645 30.7461 285.576 30.4336 285.479 30.1211C285.387 29.8021 285.244 29.5482 285.049 29.3594C284.854 29.1641 284.616 29.0664 284.336 29.0664C283.359 29.0664 282.871 30.0299 282.871 31.957V32.3867Z" fill="white"/>
<defs>
<radialGradient id="paint0_radial_156_209" cx="0" cy="0" r="1" gradientUnits="userSpaceOnUse" gradientTransform="translate(160 31.0062) rotate(180) scale(160 344.866)">
<stop offset="0.153846" stop-color="#A3002B"/>
<stop offset="0.807692" stop-color="#3C0010"/>
</radialGradient>
</defs>
</svg>
